<svg width="384.000000" height="93.000000" viewBox="0 0 384 93" fill="none" xmlns="http://www.w3.org/2000/svg" xmlns:xlink="http://www.w3.org/1999/xlink">
	<desc>
			Created with Pixso.
	</desc>
	<defs>
		<clipPath id="clip22_25715">
			<rect id="svg" rx="6.000000" width="384.000000" height="48.000000" transform="translate(0.000000 45.000000)" fill="white" fill-opacity="0"/>
		</clipPath>
		<linearGradient x1="0.000000" y1="46.500000" x2="383.500000" y2="46.500000" id="paint_linear_22_25716_0" gradientUnits="userSpaceOnUse">
			<stop stop-color="#DCE4FC"/>
			<stop offset="1.000000" stop-color="#F7F9FF"/>
		</linearGradient>
		<linearGradient x1="192.000000" y1="54.000061" x2="192.000000" y2="93.600037" id="paint_linear_22_25714_0" gradientUnits="userSpaceOnUse">
			<stop stop-color="#A8BEFD"/>
			<stop offset="1.000000" stop-color="#D0DCFD" stop-opacity="0.000000"/>
		</linearGradient>
	</defs>
	<rect id="卡片" rx="6.000000" width="383.500000" height="93.000000" fill="url(#paint_linear_22_25716_0)" fill-opacity="1.000000"/>
	<g opacity="0.400000">
		<g clip-path="url(#clip22_25715)">
			<path id="path" d="M0 54L4.15 59.4C8.63 64.8 16.95 75.6 25.6 79.19C34.24 82.8 42.55 79.2 51.2 78.3C59.84 77.4 68.16 79.2 76.8 82.8C85.43 86.4 93.76 91.8 102.4 88.2C111.04 84.6 119.36 72 128 69.3C136.64 66.6 144.96 73.8 153.6 77.4C162.24 81 170.56 81 179.2 80.1C187.84 79.19 196.16 77.4 204.8 75.6C213.44 73.8 221.76 72 230.4 69.3C239.04 66.6 247.36 63 256 60.3C264.64 57.6 272.96 55.8 281.6 60.3C290.24 64.8 298.56 75.6 307.2 76.5C315.84 77.4 324.16 68.4 332.8 66.6C341.44 64.8 349.76 70.2 358.4 69.3C367.04 68.4 375.36 61.2 379.84 57.6L384 54L384 93.6L379.84 93.6C375.36 93.6 367.04 93.6 358.4 93.6C349.76 93.6 341.44 93.6 332.8 93.6C324.16 93.6 315.84 93.6 307.2 93.6C298.56 93.6 290.24 93.6 281.6 93.6C272.96 93.6 264.64 93.6 256 93.6C247.36 93.6 239.04 93.6 230.4 93.6C221.76 93.6 213.44 93.6 204.8 93.6C196.16 93.6 187.84 93.6 179.2 93.6C170.56 93.6 162.24 93.6 153.6 93.6C144.96 93.6 136.64 93.6 128 93.6C119.36 93.6 111.04 93.6 102.4 93.6C93.76 93.6 85.43 93.6 76.8 93.6C68.16 93.6 59.84 93.6 51.2 93.6C42.55 93.6 34.24 93.6 25.6 93.6C16.95 93.6 8.63 93.6 4.15 93.6L0 93.6L0 54Z" fill="url(#paint_linear_22_25714_0)" fill-opacity="1.000000" fill-rule="evenodd"/>
		</g>
	</g>
</svg>
