<svg width="383.500000" height="93.000000" viewBox="0 0 383.5 93" fill="none" xmlns="http://www.w3.org/2000/svg" xmlns:xlink="http://www.w3.org/1999/xlink">
	<desc>
			Created with Pixso.
	</desc>
	<defs>
		<clipPath id="clip22_25725">
			<rect id="svg" rx="6.000000" width="383.000000" height="48.000000" transform="translate(0.500000 45.000000)" fill="white" fill-opacity="0"/>
		</clipPath>
		<linearGradient x1="0.000000" y1="46.500000" x2="383.500000" y2="46.500000" id="paint_linear_22_25726_0" gradientUnits="userSpaceOnUse">
			<stop stop-color="#DAF0E5"/>
			<stop offset="1.000000" stop-color="#F0FBF5"/>
		</linearGradient>
		<linearGradient x1="192.000000" y1="54.000061" x2="192.000000" y2="93.600037" id="paint_linear_22_25724_0" gradientUnits="userSpaceOnUse">
			<stop stop-color="#90D5B2"/>
			<stop offset="1.000000" stop-color="#DDF7E9"/>
		</linearGradient>
	</defs>
	<rect id="卡片" rx="6.000000" width="383.500000" height="93.000000" fill="url(#paint_linear_22_25726_0)" fill-opacity="1.000000"/>
	<g opacity="0.400000">
		<g clip-path="url(#clip22_25725)">
			<path id="path" d="M0.5 54L4.64 59.4C9.11 64.8 17.41 75.6 26.03 79.19C34.65 82.8 42.94 79.2 51.56 78.3C60.18 77.4 68.48 79.2 77.1 82.8C85.71 86.4 94.01 91.8 102.63 88.2C111.25 84.6 119.54 72 128.16 69.3C136.78 66.6 145.08 73.8 153.7 77.4C162.31 81 170.61 81 179.23 80.1C187.85 79.19 196.14 77.4 204.76 75.6C213.38 73.8 221.68 72 230.3 69.3C238.91 66.6 247.21 63 255.83 60.3C264.45 57.6 272.74 55.8 281.36 60.3C289.98 64.8 298.28 75.6 306.9 76.5C315.51 77.4 323.81 68.4 332.43 66.6C341.05 64.8 349.34 70.2 357.96 69.3C366.58 68.4 374.88 61.2 379.35 57.6L383.5 54L383.5 93.6L379.35 93.6C374.88 93.6 366.58 93.6 357.96 93.6C349.34 93.6 341.05 93.6 332.43 93.6C323.81 93.6 315.51 93.6 306.9 93.6C298.28 93.6 289.98 93.6 281.36 93.6C272.74 93.6 264.45 93.6 255.83 93.6C247.21 93.6 238.91 93.6 230.3 93.6C221.68 93.6 213.38 93.6 204.76 93.6C196.14 93.6 187.85 93.6 179.23 93.6C170.61 93.6 162.31 93.6 153.7 93.6C145.08 93.6 136.78 93.6 128.16 93.6C119.54 93.6 111.25 93.6 102.63 93.6C94.01 93.6 85.71 93.6 77.1 93.6C68.48 93.6 60.18 93.6 51.56 93.6C42.94 93.6 34.65 93.6 26.03 93.6C17.41 93.6 9.11 93.6 4.64 93.6L0.5 93.6L0.5 54Z" fill="url(#paint_linear_22_25724_0)" fill-opacity="1.000000" fill-rule="evenodd"/>
		</g>
	</g>
</svg>
