<svg width="20.000000" height="20.000000" viewBox="0 0 20 20" fill="none" xmlns="http://www.w3.org/2000/svg" xmlns:xlink="http://www.w3.org/1999/xlink">
	<desc>
			Created with Pixso.
	</desc>
	<defs>
		<linearGradient x1="9.999630" y1="5.500009" x2="9.999630" y2="24.000000" id="paint_linear_212_28593_0" gradientUnits="userSpaceOnUse">
			<stop stop-color="#FFFFFF"/>
			<stop offset="1.000000" stop-color="#BEE2FF"/>
		</linearGradient>
	</defs>
	<path id="path" d="M9.99 0C4.47 0 0 4.47 0 10C0 15.52 4.47 20 9.99 20C15.52 20 20 15.52 20 10C20 4.47 15.52 0 9.99 0ZM9.86 17.18C9.35 17.47 8.93 17.61 8.6 17.61C8.32 17.61 8.09 17.53 7.92 17.35C7.76 17.18 7.67 16.93 7.67 16.62C7.67 15.63 8.28 13.19 9.51 9.33C9.56 9.14 9.59 8.98 9.59 8.84C9.59 8.68 9.52 8.6 9.37 8.6C9.21 8.6 9.02 8.66 8.82 8.79C8.61 8.92 8.15 9.32 7.43 10.01L6.89 9.6C7.71 8.72 8.45 8.1 9.12 7.73C9.79 7.36 10.36 7.18 10.83 7.18C11.09 7.18 11.29 7.23 11.43 7.34C11.57 7.45 11.64 7.61 11.64 7.8C11.64 8.03 11.37 9.01 10.85 10.73C9.99 13.56 9.56 15.27 9.56 15.85C9.56 15.96 9.58 16.05 9.64 16.13C9.7 16.2 9.76 16.24 9.82 16.24C10.08 16.24 10.75 15.75 11.83 14.76L12.3 15.21C11.19 16.24 10.37 16.9 9.86 17.18ZM12.7 5.08C12.45 5.35 12.18 5.48 11.87 5.48C11.62 5.48 11.42 5.4 11.25 5.23C11.09 5.07 11.01 4.85 11.01 4.58C11.01 4.22 11.13 3.91 11.36 3.66C11.6 3.41 11.88 3.29 12.21 3.29C12.46 3.29 12.67 3.37 12.83 3.53C12.99 3.7 13.07 3.9 13.07 4.16C13.07 4.51 12.95 4.82 12.7 5.08Z" fill="url(#paint_linear_212_28593_0)" fill-opacity="1.000000" fill-rule="nonzero"/>
</svg>
