<svg width="26.842102" height="28.333328" viewBox="0 0 26.8421 28.3333" fill="none" xmlns="http://www.w3.org/2000/svg" xmlns:xlink="http://www.w3.org/1999/xlink">
	<desc>
			Created with Pixso.
	</desc>
	<defs/>
	<path id="矢量 2" d="M26.84 10.43L26.84 25.35C26.84 25.44 26.83 25.54 26.82 25.64C26.81 25.74 26.8 25.83 26.78 25.93C26.76 26.02 26.74 26.12 26.71 26.21C26.68 26.31 26.65 26.4 26.61 26.49C26.57 26.58 26.53 26.67 26.48 26.75C26.44 26.84 26.39 26.92 26.33 27C26.28 27.08 26.22 27.16 26.16 27.24C26.1 27.31 26.03 27.39 25.96 27.45C25.89 27.52 25.82 27.59 25.75 27.65C25.67 27.71 25.59 27.77 25.51 27.83C25.43 27.88 25.35 27.93 25.26 27.98C25.17 28.02 25.09 28.06 25 28.1C24.91 28.14 24.81 28.17 24.72 28.2C24.63 28.23 24.53 28.25 24.44 28.27C24.34 28.29 24.24 28.3 24.15 28.31C24.05 28.32 23.95 28.33 23.85 28.33L2.98 28.33C2.88 28.33 2.78 28.32 2.69 28.31C2.59 28.3 2.49 28.29 2.4 28.27C2.3 28.25 2.21 28.23 2.11 28.2C2.02 28.17 1.93 28.14 1.84 28.1C1.75 28.06 1.66 28.02 1.57 27.98C1.49 27.93 1.4 27.88 1.32 27.83C1.24 27.77 1.16 27.71 1.09 27.65C1.01 27.59 0.94 27.52 0.87 27.45C0.8 27.39 0.73 27.31 0.67 27.24C0.61 27.16 0.55 27.08 0.5 27C0.44 26.92 0.39 26.84 0.35 26.75C0.3 26.67 0.26 26.58 0.22 26.49C0.18 26.4 0.15 26.31 0.12 26.21C0.1 26.12 0.07 26.02 0.05 25.93C0.03 25.83 0.02 25.74 0.01 25.64C0 25.54 0 25.44 0 25.35L0 10.43L26.84 10.43ZM20.87 0C20.97 0 21.07 0 21.16 0.02C21.26 0.04 21.35 0.07 21.44 0.11C21.53 0.15 21.62 0.19 21.7 0.25C21.78 0.3 21.86 0.36 21.93 0.43C22 0.5 22.06 0.58 22.11 0.66C22.17 0.74 22.21 0.83 22.25 0.92C22.29 1.01 22.32 1.1 22.33 1.2C22.35 1.29 22.36 1.39 22.36 1.49L22.36 2.98L23.85 2.98C23.95 2.98 24.05 2.98 24.15 2.99C24.24 3 24.34 3.02 24.44 3.03C24.53 3.05 24.63 3.08 24.72 3.11C24.81 3.13 24.91 3.17 25 3.2C25.09 3.24 25.17 3.28 25.26 3.33C25.35 3.38 25.43 3.43 25.51 3.48C25.59 3.53 25.67 3.59 25.75 3.65C25.82 3.72 25.89 3.78 25.96 3.85C26.03 3.92 26.1 3.99 26.16 4.07C26.22 4.14 26.28 4.22 26.33 4.3C26.39 4.38 26.44 4.47 26.48 4.55C26.53 4.64 26.57 4.73 26.61 4.82C26.65 4.91 26.68 5 26.71 5.09C26.74 5.19 26.76 5.28 26.78 5.38C26.8 5.47 26.81 5.57 26.82 5.67C26.83 5.76 26.84 5.86 26.84 5.96L26.84 8.2L0 8.2L0 5.96C0 5.86 0 5.76 0.01 5.67C0.02 5.57 0.03 5.47 0.05 5.38C0.07 5.28 0.1 5.19 0.12 5.09C0.15 5 0.18 4.91 0.22 4.82C0.26 4.73 0.3 4.64 0.35 4.55C0.39 4.47 0.44 4.38 0.5 4.3C0.55 4.22 0.61 4.14 0.67 4.07C0.73 3.99 0.8 3.92 0.87 3.85C0.94 3.78 1.01 3.72 1.09 3.65C1.16 3.59 1.24 3.53 1.32 3.48C1.4 3.43 1.49 3.38 1.57 3.33C1.66 3.28 1.75 3.24 1.84 3.2C1.93 3.17 2.02 3.13 2.11 3.11C2.21 3.08 2.3 3.05 2.4 3.03C2.49 3.02 2.59 3 2.69 2.99C2.78 2.98 2.88 2.98 2.98 2.98L4.47 2.98L4.47 1.49C4.47 1.39 4.48 1.29 4.5 1.2C4.52 1.1 4.54 1.01 4.58 0.92C4.62 0.83 4.67 0.74 4.72 0.66C4.77 0.58 4.84 0.5 4.91 0.43C4.97 0.36 5.05 0.3 5.13 0.25C5.21 0.19 5.3 0.15 5.39 0.11C5.48 0.07 5.57 0.04 5.67 0.02C5.77 0 5.86 0 5.96 0C6.06 0 6.15 0 6.25 0.02C6.35 0.04 6.44 0.07 6.53 0.11C6.62 0.15 6.71 0.19 6.79 0.25C6.87 0.3 6.95 0.36 7.01 0.43C7.08 0.5 7.15 0.58 7.2 0.66C7.25 0.74 7.3 0.83 7.34 0.92C7.38 1.01 7.4 1.1 7.42 1.2C7.44 1.29 7.45 1.39 7.45 1.49L7.45 2.98L19.38 2.98L19.38 1.49C19.38 1.39 19.39 1.29 19.41 1.2C19.43 1.1 19.46 1.01 19.49 0.92C19.53 0.83 19.58 0.74 19.63 0.66C19.69 0.58 19.75 0.5 19.82 0.43C19.89 0.36 19.96 0.3 20.04 0.25C20.13 0.19 20.21 0.15 20.3 0.11C20.39 0.07 20.49 0.04 20.58 0.02C20.68 0 20.77 0 20.87 0Z" fill="#6998FE" fill-opacity="1.000000" fill-rule="nonzero"/>
	<path id="矢量 2" d="M14.61 15.41L9.94 15.41L9.94 13.66L16.56 13.66L16.56 15.68L13.02 23.5L10.87 23.5L14.61 15.41Z" fill="#FFFFFF" fill-opacity="1.000000" fill-rule="nonzero"/>
</svg>
