<svg width="91.411438" height="93.125000" viewBox="0 0 91.4114 93.125" fill="none" xmlns="http://www.w3.org/2000/svg" xmlns:xlink="http://www.w3.org/1999/xlink">
	<desc>
			Created with Pixso.
	</desc>
	<defs>
		<filter id="filter_18_19374_dd" x="63.733887" y="38.508606" width="14.867554" height="9.339233" filterUnits="userSpaceOnUse" color-interpolation-filters="sRGB">
			<feFlood flood-opacity="0" result="BackgroundImageFix"/>
			<feBlend mode="normal" in="SourceGraphic" in2="BackgroundImageFix" result="shape"/>
			<feColorMatrix in="SourceAlpha" type="matrix" values="0 0 0 0 0 0 0 0 0 0 0 0 0 0 0 0 0 0 127 0" result="hardAlpha"/>
			<feOffset dx="-3.125" dy="0"/>
			<feGaussianBlur stdDeviation="0"/>
			<feComposite in2="hardAlpha" operator="arithmetic" k2="-1" k3="1"/>
			<feColorMatrix type="matrix" values="0 0 0 0 0.13333 0 0 0 0 0.35686 0 0 0 0 0.81569 0 0 0 1 0"/>
			<feBlend mode="normal" in2="shape" result="effect_innerShadow_1"/>
		</filter>
		<filter id="filter_18_19377_dd" x="63.863037" y="24.531006" width="14.661682" height="9.475769" filterUnits="userSpaceOnUse" color-interpolation-filters="sRGB">
			<feFlood flood-opacity="0" result="BackgroundImageFix"/>
			<feBlend mode="normal" in="SourceGraphic" in2="BackgroundImageFix" result="shape"/>
			<feColorMatrix in="SourceAlpha" type="matrix" values="0 0 0 0 0 0 0 0 0 0 0 0 0 0 0 0 0 0 127 0" result="hardAlpha"/>
			<feOffset dx="-3.125" dy="0"/>
			<feGaussianBlur stdDeviation="0"/>
			<feComposite in2="hardAlpha" operator="arithmetic" k2="-1" k3="1"/>
			<feColorMatrix type="matrix" values="0 0 0 0 0.13333 0 0 0 0 0.35686 0 0 0 0 0.81569 0 0 0 1 0"/>
			<feBlend mode="normal" in2="shape" result="effect_innerShadow_1"/>
		</filter>
		<filter id="filter_18_19383_dd" x="13.549561" y="20.877686" width="46.304260" height="31.320923" filterUnits="userSpaceOnUse" color-interpolation-filters="sRGB">
			<feFlood flood-opacity="0" result="BackgroundImageFix"/>
			<feColorMatrix in="SourceAlpha" type="matrix" values="0 0 0 0 0 0 0 0 0 0 0 0 0 0 0 0 0 0 127 0" result="hardAlpha"/>
			<feOffset dx="0" dy="1.25"/>
			<feGaussianBlur stdDeviation="0.416667"/>
			<feComposite in2="hardAlpha" operator="out" k2="-1" k3="1"/>
			<feColorMatrix type="matrix" values="0 0 0 0 0.47059 0 0 0 0 0.50196 0 0 0 0 0.58039 0 0 0 0.25 0"/>
			<feBlend mode="normal" in2="BackgroundImageFix" result="effect_dropShadow_1"/>
			<feBlend mode="normal" in="SourceGraphic" in2="effect_dropShadow_1" result="shape"/>
		</filter>
		<filter id="filter_18_19385_dd" x="-1.247559" y="34.491699" width="46.304260" height="31.320923" filterUnits="userSpaceOnUse" color-interpolation-filters="sRGB">
			<feFlood flood-opacity="0" result="BackgroundImageFix"/>
			<feColorMatrix in="SourceAlpha" type="matrix" values="0 0 0 0 0 0 0 0 0 0 0 0 0 0 0 0 0 0 127 0" result="hardAlpha"/>
			<feOffset dx="0" dy="1.25"/>
			<feGaussianBlur stdDeviation="0.416667"/>
			<feComposite in2="hardAlpha" operator="out" k2="-1" k3="1"/>
			<feColorMatrix type="matrix" values="0 0 0 0 0.47059 0 0 0 0 0.50196 0 0 0 0 0.58039 0 0 0 0.25 0"/>
			<feBlend mode="normal" in2="BackgroundImageFix" result="effect_dropShadow_1"/>
			<feBlend mode="normal" in="SourceGraphic" in2="effect_dropShadow_1" result="shape"/>
		</filter>
		<clipPath id="clip18_19371">
			<rect id="组 42406" width="91.411438" height="93.125000" fill="white" fill-opacity="0"/>
		</clipPath>
		<linearGradient x1="91.389870" y1="33.204338" x2="-14.508118" y2="33.204338" id="paint_linear_18_19372_0" gradientUnits="userSpaceOnUse">
			<stop stop-color="#556595"/>
			<stop offset="0.073697" stop-color="#8B9FC4"/>
			<stop offset="0.402837" stop-color="#BDCFEB"/>
			<stop offset="0.468294" stop-color="#D2E0F7"/>
			<stop offset="0.519413" stop-color="#A3B6DC"/>
			<stop offset="0.688164" stop-color="#D2E0F7"/>
			<stop offset="0.933231" stop-color="#CFDEF5"/>
			<stop offset="1.000000" stop-color="#9FB0D2"/>
		</linearGradient>
		<linearGradient x1="3.348032" y1="85.597260" x2="82.709114" y2="88.060226" id="paint_linear_18_19373_0" gradientUnits="userSpaceOnUse">
			<stop stop-color="#B6CDF2"/>
			<stop offset="1.000000" stop-color="#9AB0E5"/>
		</linearGradient>
		<linearGradient x1="5.611905" y1="81.483803" x2="93.410896" y2="78.748085" id="paint_linear_18_19375_0" gradientUnits="userSpaceOnUse">
			<stop stop-color="#62A0E4"/>
			<stop offset="0.045363" stop-color="#4985FA"/>
			<stop offset="0.319496" stop-color="#4FA3FB"/>
			<stop offset="0.356882" stop-color="#51AEFA"/>
			<stop offset="0.403435" stop-color="#1646D2"/>
			<stop offset="0.561985" stop-color="#2961FF"/>
			<stop offset="0.702753" stop-color="#53B2F7"/>
			<stop offset="0.965019" stop-color="#2F92F1"/>
			<stop offset="1.000000" stop-color="#8BC3FB"/>
		</linearGradient>
		<linearGradient x1="-33.332569" y1="44.358467" x2="48.843685" y2="92.653572" id="paint_linear_18_19376_0" gradientUnits="userSpaceOnUse">
			<stop stop-color="#47B7F4"/>
			<stop offset="0.320455" stop-color="#57AFF8"/>
			<stop offset="0.433784" stop-color="#3272FF"/>
			<stop offset="0.755682" stop-color="#3786F5"/>
			<stop offset="1.000000" stop-color="#256DF0"/>
		</linearGradient>
		<linearGradient x1="20.705839" y1="27.985233" x2="65.253586" y2="27.460133" id="paint_linear_18_19378_0" gradientUnits="userSpaceOnUse">
			<stop stop-color="#62A0E4"/>
			<stop offset="0.112644" stop-color="#4985FA"/>
			<stop offset="0.397446" stop-color="#4FA3FB"/>
			<stop offset="0.656245" stop-color="#51AEFA"/>
			<stop offset="0.741374" stop-color="#1646D2"/>
			<stop offset="0.797505" stop-color="#2961FF"/>
			<stop offset="0.888665" stop-color="#53B2F7"/>
			<stop offset="0.965019" stop-color="#2F92F1"/>
			<stop offset="1.000000" stop-color="#8BC3FB"/>
		</linearGradient>
		<linearGradient x1="62.609360" y1="0.489395" x2="20.488037" y2="0.489395" id="paint_linear_18_19379_0" gradientUnits="userSpaceOnUse">
			<stop stop-color="#2B81FF"/>
			<stop offset="1.000000" stop-color="#6DA4FF"/>
		</linearGradient>
		<linearGradient x1="57.616417" y1="8.272480" x2="39.826904" y2="8.272480" id="paint_linear_18_19380_0" gradientUnits="userSpaceOnUse">
			<stop stop-color="#ADCEFF"/>
			<stop offset="1.000000" stop-color="#8DB8FF"/>
		</linearGradient>
		<linearGradient x1="53.632530" y1="11.676044" x2="35.843018" y2="11.676044" id="paint_linear_18_19381_0" gradientUnits="userSpaceOnUse">
			<stop stop-color="#ADCEFF"/>
			<stop offset="1.000000" stop-color="#8DB8FF"/>
		</linearGradient>
		<linearGradient x1="25.813078" y1="11.073981" x2="40.240891" y2="11.073981" id="paint_linear_18_19382_0" gradientUnits="userSpaceOnUse">
			<stop stop-color="#EDFAFF"/>
			<stop offset="1.000000" stop-color="#BEEBFF"/>
		</linearGradient>
		<linearGradient x1="63.733982" y1="23.458622" x2="19.929684" y2="16.707962" id="paint_linear_18_19383_0" gradientUnits="userSpaceOnUse">
			<stop stop-color="#556595"/>
			<stop offset="0.073697" stop-color="#8B9FC4"/>
			<stop offset="0.209268" stop-color="#BDCFEB"/>
			<stop offset="0.234063" stop-color="#D2E0F7"/>
			<stop offset="0.289510" stop-color="#A3B6DC"/>
			<stop offset="0.688164" stop-color="#D2E0F7"/>
			<stop offset="0.933231" stop-color="#CFDEF5"/>
			<stop offset="1.000000" stop-color="#9FB0D2"/>
		</linearGradient>
		<linearGradient x1="16.355288" y1="43.915089" x2="54.448105" y2="45.110409" id="paint_linear_18_19384_0" gradientUnits="userSpaceOnUse">
			<stop stop-color="#B6CDF2"/>
			<stop offset="1.000000" stop-color="#9AB0E5"/>
		</linearGradient>
		<linearGradient x1="48.936863" y1="37.072636" x2="5.132564" y2="30.321976" id="paint_linear_18_19385_0" gradientUnits="userSpaceOnUse">
			<stop stop-color="#556595"/>
			<stop offset="0.073697" stop-color="#8B9FC4"/>
			<stop offset="0.209268" stop-color="#BDCFEB"/>
			<stop offset="0.234063" stop-color="#D2E0F7"/>
			<stop offset="0.289510" stop-color="#A3B6DC"/>
			<stop offset="0.688164" stop-color="#D2E0F7"/>
			<stop offset="0.933231" stop-color="#CFDEF5"/>
			<stop offset="1.000000" stop-color="#9FB0D2"/>
		</linearGradient>
		<linearGradient x1="1.558413" y1="57.529224" x2="39.651230" y2="58.724545" id="paint_linear_18_19386_0" gradientUnits="userSpaceOnUse">
			<stop stop-color="#B6CDF2"/>
			<stop offset="1.000000" stop-color="#9AB0E5"/>
		</linearGradient>
		<linearGradient x1="21.260344" y1="32.062386" x2="35.688156" y2="32.062386" id="paint_linear_18_19387_0" gradientUnits="userSpaceOnUse">
			<stop stop-color="#D7E4FB"/>
			<stop offset="1.000000" stop-color="#99B0E5"/>
		</linearGradient>
		<linearGradient x1="5.894377" y1="45.676582" x2="20.322189" y2="45.676582" id="paint_linear_18_19388_0" gradientUnits="userSpaceOnUse">
			<stop stop-color="#D7E4FB"/>
			<stop offset="1.000000" stop-color="#99B0E5"/>
		</linearGradient>
	</defs>
	<rect id="组 42406" width="91.411438" height="93.125000" fill="#FFFFFF" fill-opacity="0"/>
	<g clip-path="url(#clip18_19371)">
		<path id="路径" d="M91.37 59.29C91.4 58.64 91.04 58.04 90.46 57.76L56.42 38.16C55.05 37.39 52.7 37.48 51.14 38.38L1.37 66.28C0.42 66.83 0.1 67.5 0.1 68.21C0.1 68.35 0.1 71.33 0.1 71.47C0.07 72.11 0.43 72.71 1.01 73L35.06 92.59C36.43 93.37 38.77 93.27 40.33 92.38L90.11 64.48C91.06 63.93 91.38 63.25 91.38 62.55C91.4 62.41 91.38 59.57 91.37 59.29Z" fill="url(#paint_linear_18_19372_0)" fill-opacity="1.000000" fill-rule="nonzero"/>
		<path id="路径" d="M90.46 57.76L56.42 38.16C55.05 37.39 52.7 37.48 51.14 38.38L1.37 66.28C0.42 66.83 0.1 67.5 0.1 68.21C0.1 68.35 0.1 71.33 0.1 71.47C0.07 72.11 0.43 72.71 1.01 73L35.06 92.59C36.43 93.37 38.77 93.27 40.33 92.38L90.11 64.48C91.06 63.93 91.38 63.25 91.38 62.55C91.4 62.41 91.38 59.57 91.37 59.29C91.4 58.64 91.04 58.04 90.46 57.76Z" stroke="#D8D8D8" stroke-opacity="0" stroke-width="0.000000"/>
		<path id="路径" d="M35.06 88.45L1.02 68.86C-0.35 68.08 -0.17 66.73 1.39 65.83L51.17 37.93C52.73 37.02 55.09 36.93 56.44 37.71L90.49 57.31C91.85 58.08 91.67 59.44 90.11 60.34L40.34 88.24C38.77 89.14 36.43 89.24 35.06 88.45Z" fill="url(#paint_linear_18_19373_0)" fill-opacity="1.000000" fill-rule="nonzero"/>
		<path id="路径" d="M1.02 68.86C-0.35 68.08 -0.17 66.73 1.39 65.83L51.17 37.93C52.73 37.02 55.09 36.93 56.44 37.71L90.49 57.31C91.85 58.08 91.67 59.44 90.11 60.34L40.34 88.24C38.77 89.14 36.43 89.24 35.06 88.45L1.02 68.86Z" stroke="#D8D8D8" stroke-opacity="0" stroke-width="0.000000"/>
		<g filter="url(#filter_18_19374_dd)">
			<path id="路径 13" d="M64.48 38.5L64.48 38.5C63.07 40.54 63.71 43.34 65.86 44.57L69.73 46.77C72.02 48.08 74.79 48.2 77.18 47.09L78.6 46.44L64.48 38.5Z" fill="#1A5ADF" fill-opacity="1.000000" fill-rule="nonzero"/>
		</g>
		<path id="路径 13" d="M64.48 38.5C63.07 40.54 63.71 43.34 65.86 44.57L69.73 46.77C72.02 48.08 74.79 48.2 77.18 47.09L78.6 46.44L64.48 38.5L64.48 38.5Z" stroke="#D8D8D8" stroke-opacity="0" stroke-width="0.000000"/>
		<path id="路径" d="M91.41 40.7C91.43 40.05 91.04 40.61 90.46 40.33L56.42 20.73C55.05 19.96 52.7 20.05 51.14 20.95L1.37 48.85C0.42 49.4 0.2 49.33 0.09 49.56C0.09 49.7 0.1 60.9 0.1 61.03C0.07 61.68 0.43 62.28 1.01 62.56L35.06 82.16C36.43 82.94 38.77 82.84 40.33 81.94L90.11 54.04C91.06 53.49 91.38 52.81 91.38 52.11C91.4 51.97 91.41 40.98 91.41 40.7Z" fill="url(#paint_linear_18_19375_0)" fill-opacity="1.000000" fill-rule="nonzero"/>
		<path id="路径" d="M90.46 40.33L56.42 20.73C55.05 19.96 52.7 20.05 51.14 20.95L1.37 48.85C0.42 49.4 0.2 49.33 0.09 49.56C0.09 49.7 0.1 60.9 0.1 61.03C0.07 61.68 0.43 62.28 1.01 62.56L35.06 82.16C36.43 82.94 38.77 82.84 40.33 81.94L90.11 54.04C91.06 53.49 91.38 52.81 91.38 52.11C91.4 51.97 91.41 40.98 91.41 40.7C91.43 40.05 91.04 40.61 90.46 40.33Z" stroke="#D8D8D8" stroke-opacity="0" stroke-width="0.000000"/>
		<path id="路径" d="M35.06 70.53L1.02 50.94C-0.35 50.16 -0.17 48.8 1.39 47.9L51.17 20C52.73 19.1 55.09 19.01 56.44 19.79L90.49 39.38C91.85 40.16 91.67 41.52 90.11 42.42L40.34 70.31C38.77 71.21 36.43 71.31 35.06 70.53Z" fill="url(#paint_linear_18_19376_0)" fill-opacity="1.000000" fill-rule="nonzero"/>
		<path id="路径" d="M1.02 50.94C-0.35 50.16 -0.17 48.8 1.39 47.9L51.17 20C52.73 19.1 55.09 19.01 56.44 19.79L90.49 39.38C91.85 40.16 91.67 41.52 90.11 42.42L40.34 70.31C38.77 71.21 36.43 71.31 35.06 70.53L1.02 50.94Z" stroke="#D8D8D8" stroke-opacity="0" stroke-width="0.000000"/>
		<g filter="url(#filter_18_19377_dd)">
			<path id="路径 13" d="M64.67 24.53C63.26 26.56 63.71 29.5 65.86 30.73L69.73 32.93C72.02 34.23 74.79 34.35 77.18 33.25L78.52 32.5L64.67 24.53Z" fill="#1A5ADF" fill-opacity="1.000000" fill-rule="nonzero"/>
		</g>
		<path id="路径 13" d="M65.86 30.73L69.73 32.93C72.02 34.23 74.79 34.35 77.18 33.25L78.52 32.5L64.67 24.53C63.26 26.56 63.71 29.5 65.86 30.73Z" stroke="#D8D8D8" stroke-opacity="0" stroke-width="0.000000"/>
		<path id="路径" d="M64.28 18.13C64.31 17.48 63.95 16.88 63.37 16.6L35.01 0.98C33.65 0.2 31.3 0.3 29.73 1.19L21.76 6.4C20.81 6.95 20.49 7.63 20.49 8.33C20.49 8.47 20.49 11.46 20.49 11.59C20.46 12.24 20.82 12.84 21.4 13.12L49.76 28.75C51.12 29.53 53.47 29.43 55.03 28.53L63.01 23.32C63.97 22.77 64.28 22.09 64.28 21.39C64.3 21.25 64.28 18.42 64.28 18.13Z" fill="url(#paint_linear_18_19378_0)" fill-opacity="1.000000" fill-rule="nonzero"/>
		<path id="路径" d="M63.37 16.6L35.01 0.98C33.65 0.2 31.3 0.3 29.73 1.19L21.76 6.4C20.81 6.95 20.49 7.63 20.49 8.33C20.49 8.47 20.49 11.46 20.49 11.59C20.46 12.24 20.82 12.84 21.4 13.12L49.76 28.75C51.12 29.53 53.47 29.43 55.03 28.53L63.01 23.32C63.97 22.77 64.28 22.09 64.28 21.39C64.3 21.25 64.28 18.42 64.28 18.13C64.31 17.48 63.95 16.88 63.37 16.6Z" stroke="#D8D8D8" stroke-opacity="0" stroke-width="0.000000"/>
		<path id="路径" d="M49.76 24.61L21.4 8.99C20.04 8.21 20.22 6.85 21.78 5.95L29.76 0.74C31.32 -0.17 33.68 -0.25 35.03 0.52L63.39 16.15C64.76 16.92 64.57 18.28 63.01 19.18L55.03 24.39C53.46 25.29 51.12 25.39 49.76 24.61Z" fill="url(#paint_linear_18_19379_0)" fill-opacity="1.000000" fill-rule="nonzero"/>
		<path id="路径" d="M21.4 8.99C20.04 8.21 20.22 6.85 21.78 5.95L29.76 0.74C31.32 -0.17 33.68 -0.25 35.03 0.52L63.39 16.15C64.76 16.92 64.57 18.28 63.01 19.18L55.03 24.39C53.46 25.29 51.12 25.39 49.76 24.61L21.4 8.99Z" stroke="#D8D8D8" stroke-opacity="0" stroke-width="0.000000"/>
		<path id="路径" d="M54.27 18.26L40.28 10.56C39.6 10.17 39.69 9.5 40.46 9.06L41.28 8.43C42.05 7.98 43.22 7.94 43.89 8.32L57.88 16.03C58.55 16.42 58.46 17.09 57.69 17.53L56.87 18.16C56.1 18.6 54.94 18.65 54.27 18.26Z" fill="url(#paint_linear_18_19380_0)" fill-opacity="1.000000" fill-rule="nonzero"/>
		<path id="路径" d="M40.28 10.56C39.6 10.17 39.69 9.5 40.46 9.06L41.28 8.43C42.05 7.98 43.22 7.94 43.89 8.32L57.88 16.03C58.55 16.42 58.46 17.09 57.69 17.53L56.87 18.16C56.1 18.6 54.94 18.65 54.27 18.26L40.28 10.56Z" stroke="#D8D8D8" stroke-opacity="0" stroke-width="0.000000"/>
		<path id="路径备份 4" d="M50.28 21.67L36.29 13.96C35.62 13.57 35.71 12.91 36.48 12.46L37.3 11.84C38.07 11.39 39.23 11.34 39.9 11.73L53.9 19.44C54.57 19.82 54.48 20.49 53.71 20.94L52.89 21.56C52.11 22 50.96 22.05 50.28 21.67Z" fill="url(#paint_linear_18_19381_0)" fill-opacity="1.000000" fill-rule="nonzero"/>
		<path id="路径备份 4" d="M36.29 13.96C35.62 13.57 35.71 12.91 36.48 12.46L37.3 11.84C38.07 11.39 39.23 11.34 39.9 11.73L53.9 19.44C54.57 19.82 54.48 20.49 53.71 20.94L52.89 21.56C52.11 22 50.96 22.05 50.28 21.67L36.29 13.96Z" stroke="#D8D8D8" stroke-opacity="0" stroke-width="0.000000"/>
		<path id="路径" d="M31.54 10.9L25.87 7.59C25.06 7.13 25.17 6.31 26.1 5.78L30.87 2.67C31.8 2.12 33.21 2.07 34.02 2.54L39.69 5.85C40.5 6.31 40.39 7.12 39.46 7.66L34.69 10.77C33.76 11.31 32.36 11.37 31.54 10.9Z" fill="url(#paint_linear_18_19382_0)" fill-opacity="1.000000" fill-rule="nonzero"/>
		<g filter="url(#filter_18_19383_dd)">
			<path id="路径" d="M58.59 38.55C58.62 37.91 58.26 37.31 57.68 37.02L29.32 21.4C27.95 20.62 25.61 20.72 24.04 21.62L16.07 26.83C15.11 27.38 14.8 28.05 14.8 28.75C14.8 28.9 14.8 31.88 14.8 32.01C14.77 32.66 15.13 33.26 15.71 33.54L44.07 49.17C45.43 49.95 47.78 49.85 49.34 48.95L57.32 43.74C58.28 43.19 58.59 42.51 58.59 41.81C58.61 41.67 58.59 38.84 58.59 38.55Z" fill="url(#paint_linear_18_19383_0)" fill-opacity="1.000000" fill-rule="nonzero"/>
			<path id="路径" d="M57.68 37.02L29.32 21.4C27.95 20.62 25.61 20.72 24.04 21.62L16.07 26.83C15.11 27.38 14.8 28.05 14.8 28.75C14.8 28.9 14.8 31.88 14.8 32.01C14.77 32.66 15.13 33.26 15.71 33.54L44.07 49.17C45.43 49.95 47.78 49.85 49.34 48.95L57.32 43.74C58.28 43.19 58.59 42.51 58.59 41.81C58.61 41.67 58.59 38.84 58.59 38.55C58.62 37.91 58.26 37.31 57.68 37.02Z" stroke="#D8D8D8" stroke-opacity="0" stroke-width="0.000000"/>
		</g>
		<path id="路径" d="M44.07 45.03L15.71 29.41C14.35 28.63 14.53 27.27 16.09 26.37L24.07 21.16C25.63 20.25 27.99 20.17 29.34 20.94L57.7 36.57C59.07 37.34 58.88 38.71 57.32 39.6L49.34 44.81C47.77 45.71 45.43 45.81 44.07 45.03Z" fill="url(#paint_linear_18_19384_0)" fill-opacity="1.000000" fill-rule="nonzero"/>
		<path id="路径" d="M15.71 29.41C14.35 28.63 14.53 27.27 16.09 26.37L24.07 21.16C25.63 20.25 27.99 20.17 29.34 20.94L57.7 36.57C59.07 37.34 58.88 38.71 57.32 39.6L49.34 44.81C47.77 45.71 45.43 45.81 44.07 45.03L15.71 29.41Z" stroke="#D8D8D8" stroke-opacity="0" stroke-width="0.000000"/>
		<g filter="url(#filter_18_19385_dd)">
			<path id="路径" d="M43.79 52.17C43.82 51.52 43.46 50.92 42.88 50.64L14.52 35.01C13.16 34.24 10.81 34.33 9.25 35.23L1.27 40.44C0.32 40.99 0.16 41.08 0 41.63C0 41.77 0 45.49 0 45.63C-0.03 46.27 0.33 46.87 0.91 47.16L29.27 62.78C30.64 63.56 32.98 63.46 34.54 62.56L42.52 57.36C43.48 56.8 43.79 56.12 43.79 55.43C43.81 55.28 43.79 52.45 43.79 52.17Z" fill="url(#paint_linear_18_19385_0)" fill-opacity="1.000000" fill-rule="nonzero"/>
		</g>
		<path id="路径" d="M42.88 50.64L14.52 35.01C13.16 34.24 10.81 34.33 9.25 35.23L1.27 40.44C0.32 40.99 0.16 41.08 0 41.63C0 41.77 0 45.49 0 45.63C-0.03 46.27 0.33 46.87 0.91 47.16L29.27 62.78C30.64 63.56 32.98 63.46 34.54 62.56L42.52 57.36C43.48 56.8 43.79 56.12 43.79 55.43C43.81 55.28 43.79 52.45 43.79 52.17C43.82 51.52 43.46 50.92 42.88 50.64Z" stroke="#D8D8D8" stroke-opacity="0" stroke-width="0.000000"/>
		<path id="路径" d="M29.27 58.64L0.91 43.02C-0.45 42.24 -0.27 40.89 1.29 39.99L9.27 34.78C10.84 33.87 13.19 33.78 14.55 34.56L42.91 50.18C44.27 50.96 44.09 52.32 42.52 53.22L34.55 58.42C32.98 59.32 30.64 59.42 29.27 58.64Z" fill="url(#paint_linear_18_19386_0)" fill-opacity="1.000000" fill-rule="nonzero"/>
		<path id="路径" d="M0.91 43.02C-0.45 42.24 -0.27 40.89 1.29 39.99L9.27 34.78C10.84 33.87 13.19 33.78 14.55 34.56L42.91 50.18C44.27 50.96 44.09 52.32 42.52 53.22L34.55 58.42C32.98 59.32 30.64 59.42 29.27 58.64L0.91 43.02Z" stroke="#D8D8D8" stroke-opacity="0" stroke-width="0.000000"/>
		<path id="路径备份 7" d="M26.99 31.89L21.32 28.58C20.5 28.11 20.61 27.3 21.55 26.77L26.31 23.65C27.25 23.11 28.65 23.06 29.46 23.52L35.14 26.84C35.95 27.3 35.84 28.11 34.91 28.65L30.14 31.76C29.2 32.3 27.81 32.36 26.99 31.89Z" fill="url(#paint_linear_18_19387_0)" fill-opacity="1.000000" fill-rule="nonzero"/>
		<path id="路径备份 10" d="M11.62 45.5L5.95 42.19C5.14 41.73 5.25 40.92 6.18 40.38L10.95 37.27C11.88 36.73 13.29 36.67 14.1 37.14L19.77 40.45C20.59 40.91 20.47 41.73 19.54 42.26L14.78 45.37C13.84 45.91 12.44 45.97 11.62 45.5Z" fill="url(#paint_linear_18_19388_0)" fill-opacity="1.000000" fill-rule="nonzero"/>
		<path id="路径 121600" d="M31.56 59.17C30.68 59.17 29.86 58.98 29.27 58.64L0.91 43.02C0.36 42.7 0.04 42.28 0 41.81C-0.04 41.31 0.23 40.79 0.77 40.35C0.69 40.91 1 41.43 1.65 41.8L29.29 57.02C29.86 57.35 30.66 57.54 31.52 57.54C32.56 57.54 33.62 57.27 34.43 56.81L42.2 51.74C42.8 51.4 43.2 50.98 43.38 50.53C43.71 50.85 43.86 51.24 43.81 51.65C43.74 52.22 43.28 52.78 42.52 53.22L34.55 58.43C33.72 58.9 32.63 59.17 31.56 59.17Z" fill="#FFFFFF" fill-opacity="0.600000" fill-rule="nonzero"/>
		<path id="路径 121600" d="M29.27 58.64L0.91 43.02C0.36 42.7 0.04 42.28 0 41.81C-0.04 41.31 0.23 40.79 0.77 40.35C0.69 40.91 1 41.43 1.65 41.8L29.29 57.02C29.86 57.35 30.66 57.54 31.52 57.54C32.56 57.54 33.62 57.27 34.43 56.81L42.2 51.74C42.8 51.4 43.2 50.98 43.38 50.53C43.71 50.85 43.86 51.24 43.81 51.65C43.74 52.22 43.28 52.78 42.52 53.22L34.55 58.43C33.72 58.9 32.63 59.17 31.56 59.17C30.68 59.17 29.86 58.98 29.27 58.64Z" stroke="#D8D8D8" stroke-opacity="0" stroke-width="0.000000"/>
		<path id="路径 121601" d="M46.36 45.55C45.48 45.55 44.66 45.37 44.07 45.03L15.71 29.41C15.16 29.09 14.84 28.67 14.8 28.19C14.76 27.69 15.03 27.17 15.57 26.73C15.49 27.3 15.8 27.81 16.45 28.19L44.09 43.41C44.66 43.74 45.46 43.92 46.32 43.92C47.36 43.92 48.42 43.66 49.23 43.2L57 38.12C57.6 37.78 58 37.36 58.18 36.91C58.51 37.24 58.66 37.63 58.61 38.03C58.54 38.61 58.08 39.17 57.32 39.6L49.35 44.81C48.52 45.28 47.43 45.55 46.36 45.55Z" fill="#FFFFFF" fill-opacity="0.600000" fill-rule="nonzero"/>
		<path id="路径 121601" d="M44.07 45.03L15.71 29.41C15.16 29.09 14.84 28.67 14.8 28.19C14.76 27.69 15.03 27.17 15.57 26.73C15.49 27.3 15.8 27.81 16.45 28.19L44.09 43.41C44.66 43.74 45.46 43.92 46.32 43.92C47.36 43.92 48.42 43.66 49.23 43.2L57 38.12C57.6 37.78 58 37.36 58.18 36.91C58.51 37.24 58.66 37.63 58.61 38.03C58.54 38.61 58.08 39.17 57.32 39.6L49.35 44.81C48.52 45.28 47.43 45.55 46.36 45.55C45.48 45.55 44.66 45.37 44.07 45.03Z" stroke="#D8D8D8" stroke-opacity="0" stroke-width="0.000000"/>
		<path id="路径 121602" d="M52.05 25.13C51.17 25.13 50.35 24.95 49.76 24.61L21.4 8.99C20.85 8.67 20.53 8.25 20.49 7.77C20.45 7.27 20.72 6.75 21.26 6.31C21.18 6.88 21.49 7.39 22.14 7.77L49.78 22.99C50.35 23.32 51.15 23.5 52.01 23.5C53.05 23.5 54.11 23.24 54.92 22.78L62.69 17.7C63.29 17.36 63.69 16.94 63.87 16.49C64.2 16.82 64.35 17.21 64.3 17.61C64.23 18.19 63.77 18.75 63.01 19.18L55.04 24.39C54.21 24.86 53.12 25.13 52.05 25.13Z" fill="#FFFFFF" fill-opacity="0.301961" fill-rule="nonzero"/>
		<path id="路径 121602" d="M49.76 24.61L21.4 8.99C20.85 8.67 20.53 8.25 20.49 7.77C20.45 7.27 20.72 6.75 21.26 6.31C21.18 6.88 21.49 7.39 22.14 7.77L49.78 22.99C50.35 23.32 51.15 23.5 52.01 23.5C53.05 23.5 54.11 23.24 54.92 22.78L62.69 17.7C63.29 17.36 63.69 16.94 63.87 16.49C64.2 16.82 64.35 17.21 64.3 17.61C64.23 18.19 63.77 18.75 63.01 19.18L55.04 24.39C54.21 24.86 53.12 25.13 52.05 25.13C51.17 25.13 50.35 24.95 49.76 24.61Z" stroke="#D8D8D8" stroke-opacity="0" stroke-width="0.000000"/>
		<path id="路径 121606" d="M6.03 42.24L6.03 42.24L5.95 42.19C5.6 41.99 5.41 41.71 5.4 41.41C5.4 41.04 5.69 40.66 6.18 40.38L10.95 37.27C11.43 36.99 12.08 36.82 12.72 36.82C13.25 36.82 13.74 36.93 14.1 37.14L19.77 40.45C20.11 40.65 20.31 40.92 20.32 41.21C20.33 41.56 20.09 41.92 19.65 42.19C19.83 41.81 19.66 41.42 19.22 41.17L14 38.12C13.67 37.94 13.22 37.83 12.73 37.83C12.14 37.83 11.55 37.98 11.1 38.24L6.71 41.11C6.17 41.42 5.91 41.84 6.03 42.24L6.03 42.24Z" fill="#7E99D9" fill-opacity="0.647059" fill-rule="nonzero"/>
		<path id="路径 121606" d="M6.03 42.24L5.95 42.19C5.6 41.99 5.41 41.71 5.4 41.41C5.4 41.04 5.69 40.66 6.18 40.38L10.95 37.27C11.43 36.99 12.08 36.82 12.72 36.82C13.25 36.82 13.74 36.93 14.1 37.14L19.77 40.45C20.11 40.65 20.31 40.92 20.32 41.21C20.33 41.56 20.09 41.92 19.65 42.19C19.83 41.81 19.66 41.42 19.22 41.17L14 38.12C13.67 37.94 13.22 37.83 12.73 37.83C12.14 37.83 11.55 37.98 11.1 38.24L6.71 41.11C6.17 41.42 5.91 41.84 6.03 42.24L6.03 42.24L6.03 42.24Z" stroke="#D8D8D8" stroke-opacity="0" stroke-width="0.000000"/>
		<path id="路径 121604" d="M21.39 28.62L21.39 28.62L21.32 28.58C20.97 28.38 20.77 28.1 20.77 27.79C20.77 27.42 21.05 27.05 21.55 26.77L26.31 23.65C26.8 23.37 27.45 23.21 28.09 23.21C28.62 23.21 29.11 23.32 29.46 23.52L35.14 26.84C35.48 27.03 35.67 27.3 35.68 27.6C35.69 27.94 35.45 28.3 35.02 28.58C35.19 28.19 35.03 27.81 34.58 27.56L29.36 24.51C29.04 24.32 28.59 24.22 28.1 24.22C27.51 24.22 26.91 24.37 26.47 24.63L22.08 27.49C21.54 27.81 21.28 28.23 21.39 28.62L21.39 28.62Z" fill="#7E99D9" fill-opacity="0.647059" fill-rule="nonzero"/>
		<path id="路径 121604" d="M21.39 28.62L21.32 28.58C20.97 28.38 20.77 28.1 20.77 27.79C20.77 27.42 21.05 27.05 21.55 26.77L26.31 23.65C26.8 23.37 27.45 23.21 28.09 23.21C28.62 23.21 29.11 23.32 29.46 23.52L35.14 26.84C35.48 27.03 35.67 27.3 35.68 27.6C35.69 27.94 35.45 28.3 35.02 28.58C35.19 28.19 35.03 27.81 34.58 27.56L29.36 24.51C29.04 24.32 28.59 24.22 28.1 24.22C27.51 24.22 26.91 24.37 26.47 24.63L22.08 27.49C21.54 27.81 21.28 28.23 21.39 28.62L21.39 28.62L21.39 28.62Z" stroke="#D8D8D8" stroke-opacity="0" stroke-width="0.000000"/>
		<path id="路径 121605" d="M25.95 7.63L25.95 7.63L25.87 7.59C25.52 7.39 25.32 7.11 25.32 6.8C25.32 6.43 25.61 6.06 26.1 5.77L30.87 2.66C31.35 2.38 32 2.22 32.64 2.22C33.17 2.22 33.66 2.33 34.02 2.53L39.69 5.84C40.03 6.04 40.23 6.31 40.24 6.61C40.25 6.95 40 7.31 39.57 7.59C39.74 7.2 39.58 6.82 39.14 6.56L33.92 3.52C33.59 3.33 33.14 3.23 32.65 3.23C32.06 3.23 31.47 3.38 31.02 3.64L26.63 6.5C26.09 6.81 25.83 7.24 25.95 7.63L25.95 7.63Z" fill="#0065FB" fill-opacity="1.000000" fill-rule="nonzero"/>
		<path id="路径 121605" d="M25.95 7.63L25.87 7.59C25.52 7.39 25.32 7.11 25.32 6.8C25.32 6.43 25.61 6.06 26.1 5.77L30.87 2.66C31.35 2.38 32 2.22 32.64 2.22C33.17 2.22 33.66 2.33 34.02 2.53L39.69 5.84C40.03 6.04 40.23 6.31 40.24 6.61C40.25 6.95 40 7.31 39.57 7.59C39.74 7.2 39.58 6.82 39.14 6.56L33.92 3.52C33.59 3.33 33.14 3.23 32.65 3.23C32.06 3.23 31.47 3.38 31.02 3.64L26.63 6.5C26.09 6.81 25.83 7.24 25.95 7.63L25.95 7.63L25.95 7.63Z" stroke="#D8D8D8" stroke-opacity="0" stroke-width="0.000000"/>
		<path id="路径 121607" d="M51.41 21.93C50.98 21.93 50.58 21.83 50.28 21.67L36.29 13.96C36 13.8 35.84 13.57 35.84 13.32C35.83 13.02 36.05 12.72 36.43 12.49C36.26 12.83 36.4 13.17 36.8 13.4L50.24 20.81C50.52 20.97 50.91 21.06 51.33 21.06C51.83 21.06 52.35 20.93 52.74 20.7L53.53 20.1C53.79 19.95 53.98 19.76 54.08 19.56C54.27 19.73 54.36 19.93 54.35 20.14C54.32 20.43 54.09 20.71 53.71 20.94L52.89 21.56C52.48 21.79 51.94 21.93 51.41 21.93Z" fill="#FFFFFF" fill-opacity="0.388235" fill-rule="nonzero"/>
		<path id="路径 121607" d="M50.28 21.67L36.29 13.96C36 13.8 35.84 13.57 35.84 13.32C35.83 13.02 36.05 12.72 36.43 12.49C36.26 12.83 36.4 13.17 36.8 13.4L50.24 20.81C50.52 20.97 50.91 21.06 51.33 21.06C51.83 21.06 52.35 20.93 52.74 20.7L53.53 20.1C53.79 19.95 53.98 19.76 54.08 19.56C54.27 19.73 54.36 19.93 54.35 20.14C54.32 20.43 54.09 20.71 53.71 20.94L52.89 21.56C52.48 21.79 51.94 21.93 51.41 21.93C50.98 21.93 50.58 21.83 50.28 21.67Z" stroke="#D8D8D8" stroke-opacity="0" stroke-width="0.000000"/>
		<path id="路径 121608" d="M55.4 18.52C54.96 18.52 54.56 18.43 54.27 18.26L40.28 10.56C39.99 10.39 39.83 10.16 39.82 9.92C39.82 9.62 40.03 9.32 40.42 9.08C40.25 9.43 40.38 9.77 40.78 10L54.22 17.4C54.5 17.56 54.89 17.65 55.31 17.65C55.82 17.65 56.33 17.52 56.72 17.3L57.51 16.7C57.78 16.55 57.97 16.36 58.06 16.16C58.26 16.32 58.35 16.52 58.33 16.74C58.3 17.03 58.08 17.31 57.69 17.53L56.87 18.16C56.46 18.39 55.93 18.52 55.4 18.52Z" fill="#FFFFFF" fill-opacity="0.388235" fill-rule="nonzero"/>
		<path id="路径 121608" d="M54.27 18.26L40.28 10.56C39.99 10.39 39.83 10.16 39.82 9.92C39.82 9.62 40.03 9.32 40.42 9.08C40.25 9.43 40.38 9.77 40.78 10L54.22 17.4C54.5 17.56 54.89 17.65 55.31 17.65C55.82 17.65 56.33 17.52 56.72 17.3L57.51 16.7C57.78 16.55 57.97 16.36 58.06 16.16C58.26 16.32 58.35 16.52 58.33 16.74C58.3 17.03 58.08 17.31 57.69 17.53L56.87 18.16C56.46 18.39 55.93 18.52 55.4 18.52C54.96 18.52 54.56 18.43 54.27 18.26Z" stroke="#D8D8D8" stroke-opacity="0" stroke-width="0.000000"/>
		<path id="路径 121603" d="M37.36 88.98C36.47 88.98 35.66 88.79 35.06 88.46L1.02 68.86C0.44 68.53 0.11 68.08 0.1 67.58C0.09 67.3 0.18 67.01 0.36 66.73C0.55 66.45 0.84 66.18 1.2 65.95C0.99 66.59 1.29 67.21 2.03 67.63L35.21 86.72C35.79 87.05 36.58 87.23 37.45 87.23C38.49 87.23 39.55 86.97 40.35 86.51L88.86 59.32C89.53 58.94 89.96 58.44 90.09 57.93C90.17 57.6 90.11 57.27 89.92 56.98L90.49 57.31C91.08 57.64 91.4 58.11 91.41 58.62C91.41 59.24 90.93 59.87 90.11 60.34L40.34 88.24C39.51 88.71 38.43 88.98 37.36 88.98Z" fill="#FFFFFF" fill-opacity="0.619608" fill-rule="nonzero"/>
		<path id="路径 121603" d="M35.06 88.46L1.02 68.86C0.44 68.53 0.11 68.08 0.1 67.58C0.09 67.3 0.18 67.01 0.36 66.73C0.55 66.45 0.84 66.18 1.2 65.95C0.99 66.59 1.29 67.21 2.03 67.63L35.21 86.72C35.79 87.05 36.58 87.23 37.45 87.23C38.49 87.23 39.55 86.97 40.35 86.51L88.86 59.32C89.53 58.94 89.96 58.44 90.09 57.93C90.17 57.6 90.11 57.27 89.92 56.98L90.49 57.31C91.08 57.64 91.4 58.11 91.41 58.62C91.41 59.24 90.93 59.87 90.11 60.34L40.34 88.24C39.51 88.71 38.43 88.98 37.36 88.98C36.47 88.98 35.66 88.79 35.06 88.46Z" stroke="#D8D8D8" stroke-opacity="0" stroke-width="0.000000"/>
		<path id="路径 121609" d="M37.35 71.06C36.47 71.06 35.66 70.87 35.06 70.53L1.02 50.94C0.46 50.62 0.14 50.2 0.1 49.73C0.06 49.23 0.32 48.72 0.85 48.28C0.8 48.83 1.12 49.33 1.75 49.69L35.24 68.96C35.82 69.29 36.62 69.47 37.49 69.47C38.54 69.47 39.61 69.21 40.43 68.74L89.38 41.3C90.26 40.8 90.72 40.13 90.65 39.48C91.16 39.82 91.42 40.25 91.41 40.73C91.39 41.34 90.91 41.95 90.11 42.42L40.34 70.31C39.51 70.78 38.42 71.06 37.35 71.06Z" fill="#FFFFFF" fill-opacity="0.368627" fill-rule="nonzero"/>
		<path id="路径 121609" d="M35.06 70.53L1.02 50.94C0.46 50.62 0.14 50.2 0.1 49.73C0.06 49.23 0.32 48.72 0.85 48.28C0.8 48.83 1.12 49.33 1.75 49.69L35.24 68.96C35.82 69.29 36.62 69.47 37.49 69.47C38.54 69.47 39.61 69.21 40.43 68.74L89.38 41.3C90.26 40.8 90.72 40.13 90.65 39.48C91.16 39.82 91.42 40.25 91.41 40.73C91.39 41.34 90.91 41.95 90.11 42.42L40.34 70.31C39.51 70.78 38.42 71.06 37.35 71.06C36.47 71.06 35.66 70.87 35.06 70.53Z" stroke="#D8D8D8" stroke-opacity="0" stroke-width="0.000000"/>
	</g>
</svg>
