<svg width="26.842102" height="28.333344" viewBox="0 0 26.8421 28.3333" fill="none" xmlns="http://www.w3.org/2000/svg" xmlns:xlink="http://www.w3.org/1999/xlink">
	<desc>
			Created with Pixso.
	</desc>
	<defs/>
	<path id="矢量 3" d="M26.84 10.43L26.84 25.35C26.84 25.44 26.83 25.54 26.82 25.64C26.81 25.74 26.8 25.83 26.78 25.93C26.76 26.02 26.74 26.12 26.71 26.21C26.68 26.31 26.65 26.4 26.61 26.49C26.57 26.58 26.53 26.67 26.48 26.75C26.44 26.84 26.39 26.92 26.33 27C26.28 27.08 26.22 27.16 26.16 27.24C26.1 27.31 26.03 27.39 25.96 27.45C25.89 27.52 25.82 27.59 25.75 27.65C25.67 27.71 25.59 27.77 25.51 27.83C25.43 27.88 25.35 27.93 25.26 27.98C25.17 28.02 25.09 28.06 25 28.1C24.91 28.14 24.81 28.17 24.72 28.2C24.63 28.23 24.53 28.25 24.44 28.27C24.34 28.29 24.24 28.3 24.15 28.31C24.05 28.32 23.95 28.33 23.85 28.33L2.98 28.33C2.88 28.33 2.78 28.32 2.69 28.31C2.59 28.3 2.49 28.29 2.4 28.27C2.3 28.25 2.21 28.23 2.11 28.2C2.02 28.17 1.93 28.14 1.84 28.1C1.75 28.06 1.66 28.02 1.57 27.98C1.49 27.93 1.4 27.88 1.32 27.83C1.24 27.77 1.16 27.71 1.09 27.65C1.01 27.59 0.94 27.52 0.87 27.45C0.8 27.39 0.73 27.31 0.67 27.24C0.61 27.16 0.55 27.08 0.5 27C0.44 26.92 0.39 26.84 0.35 26.75C0.3 26.67 0.26 26.58 0.22 26.49C0.18 26.4 0.15 26.31 0.12 26.21C0.1 26.12 0.07 26.02 0.05 25.93C0.03 25.83 0.02 25.74 0.01 25.64C0 25.54 0 25.44 0 25.35L0 10.43L26.84 10.43ZM20.87 0C20.97 0 21.07 0 21.16 0.02C21.26 0.04 21.35 0.07 21.44 0.11C21.53 0.15 21.62 0.19 21.7 0.25C21.78 0.3 21.86 0.36 21.93 0.43C22 0.5 22.06 0.58 22.11 0.66C22.17 0.74 22.21 0.83 22.25 0.92C22.29 1.01 22.32 1.1 22.33 1.2C22.35 1.29 22.36 1.39 22.36 1.49L22.36 2.98L23.85 2.98C23.95 2.98 24.05 2.98 24.15 2.99C24.24 3 24.34 3.02 24.44 3.03C24.53 3.05 24.63 3.08 24.72 3.11C24.81 3.13 24.91 3.17 25 3.2C25.09 3.24 25.17 3.28 25.26 3.33C25.35 3.38 25.43 3.43 25.51 3.48C25.59 3.53 25.67 3.59 25.75 3.65C25.82 3.72 25.89 3.78 25.96 3.85C26.03 3.92 26.1 3.99 26.16 4.07C26.22 4.14 26.28 4.22 26.33 4.3C26.39 4.38 26.44 4.47 26.48 4.55C26.53 4.64 26.57 4.73 26.61 4.82C26.65 4.91 26.68 5 26.71 5.09C26.74 5.19 26.76 5.28 26.78 5.38C26.8 5.47 26.81 5.57 26.82 5.67C26.83 5.76 26.84 5.86 26.84 5.96L26.84 8.2L0 8.2L0 5.96C0 5.86 0 5.76 0.01 5.67C0.02 5.57 0.03 5.47 0.05 5.38C0.07 5.28 0.1 5.19 0.12 5.09C0.15 5 0.18 4.91 0.22 4.82C0.26 4.73 0.3 4.64 0.35 4.55C0.39 4.47 0.44 4.38 0.5 4.3C0.55 4.22 0.61 4.14 0.67 4.07C0.73 3.99 0.8 3.92 0.87 3.85C0.94 3.78 1.01 3.72 1.09 3.65C1.16 3.59 1.24 3.53 1.32 3.48C1.4 3.43 1.49 3.38 1.57 3.33C1.66 3.28 1.75 3.24 1.84 3.2C1.93 3.17 2.02 3.13 2.11 3.11C2.21 3.08 2.3 3.05 2.4 3.03C2.49 3.02 2.59 3 2.69 2.99C2.78 2.98 2.88 2.98 2.98 2.98L4.47 2.98L4.47 1.49C4.47 1.39 4.48 1.29 4.5 1.2C4.52 1.1 4.54 1.01 4.58 0.92C4.62 0.83 4.67 0.74 4.72 0.66C4.77 0.58 4.84 0.5 4.91 0.43C4.97 0.36 5.05 0.3 5.13 0.25C5.21 0.19 5.3 0.15 5.39 0.11C5.48 0.07 5.57 0.04 5.67 0.02C5.77 0 5.86 0 5.96 0C6.06 0 6.15 0 6.25 0.02C6.35 0.04 6.44 0.07 6.53 0.11C6.62 0.15 6.71 0.19 6.79 0.25C6.87 0.3 6.95 0.36 7.01 0.43C7.08 0.5 7.15 0.58 7.2 0.66C7.25 0.74 7.3 0.83 7.34 0.92C7.38 1.01 7.4 1.1 7.42 1.2C7.44 1.29 7.45 1.39 7.45 1.49L7.45 2.98L19.38 2.98L19.38 1.49C19.38 1.39 19.39 1.29 19.41 1.2C19.43 1.1 19.46 1.01 19.49 0.92C19.53 0.83 19.58 0.74 19.63 0.66C19.69 0.58 19.75 0.5 19.82 0.43C19.89 0.36 19.96 0.3 20.04 0.25C20.13 0.19 20.21 0.15 20.3 0.11C20.39 0.07 20.49 0.04 20.58 0.02C20.68 0 20.77 0 20.87 0Z" fill="#6DA9AE" fill-opacity="1.000000" fill-rule="nonzero"/>
	<path id="矢量 3" d="M8.1 23.64C7.24 23.64 6.49 23.58 5.88 23.45L5.88 21.7C6.25 21.77 6.6 21.83 6.93 21.87C7.26 21.91 7.61 21.94 7.99 21.94C8.28 21.94 8.56 21.92 8.82 21.88C9.08 21.84 9.3 21.77 9.49 21.67C9.68 21.57 9.83 21.43 9.94 21.25C10.06 21.08 10.11 20.85 10.11 20.56C10.11 20.03 9.9 19.68 9.48 19.49C9.05 19.31 8.46 19.22 7.71 19.22L6.96 19.22L6.96 17.64L7.69 17.64C8.38 17.64 8.93 17.55 9.34 17.37C9.74 17.19 9.94 16.84 9.94 16.34C9.94 15.9 9.78 15.6 9.46 15.44C9.14 15.27 8.71 15.19 8.16 15.19C7.86 15.19 7.53 15.22 7.18 15.27C6.83 15.32 6.52 15.39 6.25 15.48L6.25 13.82C6.47 13.74 6.79 13.68 7.2 13.61C7.6 13.55 8.01 13.52 8.42 13.52C8.96 13.52 9.46 13.57 9.9 13.66C10.34 13.75 10.72 13.9 11.03 14.11C11.35 14.32 11.59 14.6 11.75 14.95C11.92 15.29 12 15.71 12 16.21C12 16.73 11.87 17.17 11.62 17.53C11.37 17.88 10.97 18.14 10.43 18.32L10.43 18.41C11.03 18.53 11.49 18.8 11.79 19.21C12.1 19.62 12.26 20.13 12.26 20.73C12.26 21.73 11.91 22.47 11.21 22.93C10.52 23.4 9.48 23.64 8.1 23.64Z" fill="#FFFFFF" fill-opacity="1.000000" fill-rule="nonzero"/>
	<path id="矢量 3" d="M16.74 23.64C16.21 23.64 15.72 23.56 15.27 23.42C14.83 23.27 14.45 23.01 14.14 22.62C13.82 22.24 13.58 21.72 13.41 21.07C13.24 20.41 13.16 19.58 13.16 18.57C13.16 17.55 13.24 16.72 13.41 16.07C13.58 15.42 13.82 14.9 14.14 14.53C14.45 14.15 14.83 13.89 15.27 13.74C15.72 13.59 16.21 13.52 16.74 13.52C17.28 13.52 17.77 13.59 18.21 13.74C18.65 13.89 19.03 14.15 19.34 14.53C19.65 14.9 19.89 15.42 20.05 16.07C20.22 16.72 20.3 17.55 20.3 18.57C20.3 19.58 20.22 20.41 20.05 21.07C19.89 21.72 19.65 22.24 19.34 22.62C19.03 23.01 18.65 23.27 18.21 23.42C17.77 23.56 17.28 23.64 16.74 23.64ZM16.74 21.87C17.02 21.87 17.25 21.82 17.45 21.72C17.64 21.63 17.8 21.46 17.92 21.22C18.04 20.98 18.13 20.65 18.19 20.22C18.25 19.8 18.28 19.25 18.28 18.58C18.28 17.92 18.25 17.38 18.19 16.95C18.13 16.52 18.04 16.19 17.92 15.94C17.8 15.69 17.64 15.51 17.45 15.42C17.25 15.32 17.02 15.28 16.74 15.28C16.47 15.28 16.24 15.32 16.05 15.42C15.85 15.51 15.69 15.69 15.57 15.94C15.45 16.19 15.36 16.52 15.3 16.95C15.24 17.38 15.22 17.92 15.22 18.58C15.22 19.25 15.24 19.8 15.3 20.22C15.36 20.65 15.45 20.98 15.57 21.22C15.69 21.46 15.85 21.63 16.05 21.72C16.24 21.82 16.47 21.87 16.74 21.87Z" fill="#FFFFFF" fill-opacity="1.000000" fill-rule="nonzero"/>
</svg>
