<svg width="26.842163" height="28.333344" viewBox="0 0 26.8422 28.3333" fill="none" xmlns="http://www.w3.org/2000/svg" xmlns:xlink="http://www.w3.org/1999/xlink">
	<desc>
			Created with Pixso.
	</desc>
	<defs/>
	<path id="矢量 4" d="M26.84 10.43L26.84 25.35C26.84 25.44 26.83 25.54 26.82 25.64C26.81 25.74 26.8 25.83 26.78 25.93C26.76 26.02 26.74 26.12 26.71 26.21C26.68 26.31 26.65 26.4 26.61 26.49C26.57 26.58 26.53 26.67 26.49 26.75C26.44 26.84 26.39 26.92 26.33 27C26.28 27.08 26.22 27.16 26.16 27.24C26.1 27.31 26.03 27.39 25.96 27.45C25.89 27.52 25.82 27.59 25.75 27.65C25.67 27.71 25.59 27.77 25.51 27.83C25.43 27.88 25.35 27.93 25.26 27.98C25.17 28.02 25.09 28.06 25 28.1C24.91 28.14 24.81 28.17 24.72 28.2C24.63 28.23 24.53 28.25 24.44 28.27C24.34 28.29 24.24 28.3 24.15 28.31C24.05 28.32 23.95 28.33 23.85 28.33L2.98 28.33C2.88 28.33 2.78 28.32 2.69 28.31C2.59 28.3 2.49 28.29 2.4 28.27C2.3 28.25 2.21 28.23 2.11 28.2C2.02 28.17 1.93 28.14 1.84 28.1C1.75 28.06 1.66 28.02 1.57 27.98C1.49 27.93 1.4 27.88 1.32 27.83C1.24 27.77 1.16 27.71 1.09 27.65C1.01 27.59 0.94 27.52 0.87 27.45C0.8 27.39 0.73 27.31 0.67 27.24C0.61 27.16 0.55 27.08 0.5 27C0.44 26.92 0.39 26.84 0.35 26.75C0.3 26.67 0.26 26.58 0.22 26.49C0.18 26.4 0.15 26.31 0.12 26.21C0.1 26.12 0.07 26.02 0.05 25.93C0.03 25.83 0.02 25.74 0.01 25.64C0 25.54 0 25.44 0 25.35L0 10.43L26.84 10.43ZM20.87 0C20.97 0 21.07 0 21.16 0.02C21.26 0.04 21.35 0.07 21.44 0.11C21.53 0.15 21.62 0.19 21.7 0.25C21.78 0.3 21.86 0.36 21.93 0.43C22 0.5 22.06 0.58 22.11 0.66C22.17 0.74 22.21 0.83 22.25 0.92C22.29 1.01 22.32 1.1 22.33 1.2C22.35 1.29 22.36 1.39 22.36 1.49L22.36 2.98L23.85 2.98C23.95 2.98 24.05 2.98 24.15 2.99C24.24 3 24.34 3.02 24.44 3.03C24.53 3.05 24.63 3.08 24.72 3.11C24.81 3.13 24.91 3.17 25 3.2C25.09 3.24 25.17 3.28 25.26 3.33C25.35 3.38 25.43 3.43 25.51 3.48C25.59 3.53 25.67 3.59 25.75 3.65C25.82 3.72 25.89 3.78 25.96 3.85C26.03 3.92 26.1 3.99 26.16 4.07C26.22 4.14 26.28 4.22 26.33 4.3C26.39 4.38 26.44 4.47 26.49 4.55C26.53 4.64 26.57 4.73 26.61 4.82C26.65 4.91 26.68 5 26.71 5.09C26.74 5.19 26.76 5.28 26.78 5.38C26.8 5.47 26.81 5.57 26.82 5.67C26.83 5.76 26.84 5.86 26.84 5.96L26.84 8.2L0 8.2L0 5.96C0 5.86 0 5.76 0.01 5.67C0.02 5.57 0.03 5.47 0.05 5.38C0.07 5.28 0.1 5.19 0.12 5.09C0.15 5 0.18 4.91 0.22 4.82C0.26 4.73 0.3 4.64 0.35 4.55C0.39 4.47 0.44 4.38 0.5 4.3C0.55 4.22 0.61 4.14 0.67 4.07C0.73 3.99 0.8 3.92 0.87 3.85C0.94 3.78 1.01 3.72 1.09 3.65C1.16 3.59 1.24 3.53 1.32 3.48C1.4 3.43 1.49 3.38 1.57 3.33C1.66 3.28 1.75 3.24 1.84 3.2C1.93 3.17 2.02 3.13 2.11 3.11C2.21 3.08 2.3 3.05 2.4 3.03C2.49 3.02 2.59 3 2.69 2.99C2.78 2.98 2.88 2.98 2.98 2.98L4.47 2.98L4.47 1.49C4.47 1.39 4.48 1.29 4.5 1.2C4.52 1.1 4.54 1.01 4.58 0.92C4.62 0.83 4.67 0.74 4.72 0.66C4.77 0.58 4.84 0.5 4.91 0.43C4.97 0.36 5.05 0.3 5.13 0.25C5.21 0.19 5.3 0.15 5.39 0.11C5.48 0.07 5.57 0.04 5.67 0.02C5.77 0 5.86 0 5.96 0C6.06 0 6.15 0 6.25 0.02C6.35 0.04 6.44 0.07 6.53 0.11C6.62 0.15 6.71 0.19 6.79 0.25C6.87 0.3 6.95 0.36 7.01 0.43C7.08 0.5 7.15 0.58 7.2 0.66C7.25 0.74 7.3 0.83 7.34 0.92C7.38 1.01 7.4 1.1 7.42 1.2C7.44 1.29 7.45 1.39 7.45 1.49L7.45 2.98L19.38 2.98L19.38 1.49C19.38 1.39 19.39 1.29 19.41 1.2C19.43 1.1 19.46 1.01 19.49 0.92C19.53 0.83 19.58 0.74 19.63 0.66C19.69 0.58 19.75 0.5 19.82 0.43C19.89 0.36 19.96 0.3 20.04 0.25C20.13 0.19 20.21 0.15 20.3 0.11C20.39 0.07 20.49 0.04 20.58 0.02C20.68 0 20.77 0 20.87 0Z" fill="#6998FE" fill-opacity="1.000000" fill-rule="nonzero"/>
	<path id="矢量 4" d="M5.14 15.52L2.73 15.99L2.73 14.26L5.68 13.66L7.23 13.66L7.23 23.5L5.14 23.5L5.14 15.52Z" fill="#FFFFFF" fill-opacity="1.000000" fill-rule="nonzero"/>
	<path id="矢量 4" d="M13.2 23.65C12.06 23.65 11.18 23.43 10.55 22.98C9.92 22.53 9.61 21.84 9.61 20.9C9.61 20.53 9.65 20.2 9.75 19.92C9.84 19.64 9.97 19.4 10.12 19.21C10.28 19.02 10.45 18.86 10.64 18.74C10.83 18.61 11.02 18.51 11.22 18.44L11.22 18.38C11.03 18.29 10.86 18.17 10.7 18.05C10.54 17.92 10.4 17.77 10.28 17.59C10.16 17.42 10.07 17.21 10 16.98C9.94 16.74 9.9 16.47 9.9 16.16C9.9 15.31 10.18 14.65 10.74 14.19C11.29 13.74 12.12 13.51 13.2 13.51C14.29 13.51 15.11 13.74 15.66 14.19C16.21 14.65 16.49 15.31 16.49 16.16C16.49 16.77 16.37 17.25 16.12 17.58C15.88 17.92 15.53 18.18 15.07 18.38L15.07 18.44C15.3 18.51 15.52 18.61 15.72 18.74C15.93 18.87 16.12 19.03 16.27 19.22C16.43 19.42 16.55 19.65 16.65 19.93C16.74 20.21 16.79 20.54 16.79 20.92C16.79 21.84 16.48 22.53 15.85 22.98C15.23 23.43 14.35 23.65 13.2 23.65ZM13.2 17.67C13.73 17.67 14.11 17.55 14.34 17.31C14.56 17.06 14.68 16.74 14.68 16.34C14.68 15.93 14.55 15.61 14.3 15.4C14.05 15.19 13.68 15.08 13.2 15.08C12.72 15.08 12.35 15.18 12.1 15.38C11.84 15.59 11.72 15.91 11.72 16.34C11.72 16.74 11.83 17.06 12.05 17.31C12.28 17.55 12.67 17.67 13.2 17.67ZM13.2 22.02C14.33 22.02 14.89 21.59 14.89 20.72C14.89 20.21 14.74 19.83 14.45 19.59C14.16 19.34 13.74 19.22 13.2 19.22C12.67 19.22 12.25 19.34 11.95 19.59C11.65 19.83 11.5 20.21 11.5 20.72C11.5 21.14 11.64 21.47 11.91 21.69C12.19 21.91 12.62 22.02 13.2 22.02Z" fill="#FFFFFF" fill-opacity="1.000000" fill-rule="nonzero"/>
	<path id="矢量 4" d="M20.85 23.64C20.32 23.64 19.82 23.56 19.38 23.42C18.94 23.27 18.56 23.01 18.24 22.62C17.93 22.24 17.69 21.72 17.52 21.07C17.35 20.41 17.27 19.58 17.27 18.57C17.27 17.55 17.35 16.72 17.52 16.07C17.69 15.42 17.93 14.9 18.24 14.53C18.56 14.15 18.94 13.89 19.38 13.74C19.82 13.59 20.32 13.52 20.85 13.52C21.39 13.52 21.88 13.59 22.32 13.74C22.76 13.89 23.14 14.15 23.45 14.53C23.76 14.9 24 15.42 24.16 16.07C24.33 16.72 24.41 17.55 24.41 18.57C24.41 19.58 24.33 20.41 24.16 21.07C24 21.72 23.76 22.24 23.45 22.62C23.14 23.01 22.76 23.27 22.32 23.42C21.88 23.56 21.39 23.64 20.85 23.64ZM20.85 21.87C21.13 21.87 21.36 21.82 21.55 21.72C21.75 21.63 21.91 21.46 22.03 21.22C22.15 20.98 22.24 20.65 22.3 20.22C22.36 19.8 22.38 19.25 22.38 18.58C22.38 17.92 22.36 17.38 22.3 16.95C22.24 16.52 22.15 16.19 22.03 15.94C21.91 15.69 21.75 15.51 21.55 15.42C21.36 15.32 21.13 15.28 20.85 15.28C20.58 15.28 20.35 15.32 20.15 15.42C19.96 15.51 19.8 15.69 19.68 15.94C19.55 16.19 19.46 16.52 19.41 16.95C19.35 17.38 19.32 17.92 19.32 18.58C19.32 19.25 19.35 19.8 19.41 20.22C19.46 20.65 19.55 20.98 19.68 21.22C19.8 21.46 19.96 21.63 20.15 21.72C20.35 21.82 20.58 21.87 20.85 21.87Z" fill="#FFFFFF" fill-opacity="1.000000" fill-rule="nonzero"/>
</svg>
