<svg xmlns="http://www.w3.org/2000/svg" xmlns:xlink="http://www.w3.org/1999/xlink" width="13.33001708984375" height="12.72998046875" viewBox="0 0 13.33001708984375 12.72998046875" fill="none">
<path d="M0.600018 0L12.73 0C13.06 0 13.33 0.27 13.33 0.61L13.33 1.21C13.33 1.55 13.06 1.82 12.73 1.82L0.600018 1.82C0.270017 1.82 1.71661e-05 1.55 1.71661e-05 1.21L1.71661e-05 0.61C1.71661e-05 0.27 0.270017 0 0.600018 0ZM0.600018 5.46L8.48002 5.46C8.82002 5.46 9.09002 5.73 9.09002 6.06L9.09002 6.67C9.09002 7 8.82002 7.27 8.48002 7.27L0.610017 7.27C0.270017 7.27 1.71661e-05 7 1.71661e-05 6.67L1.71661e-05 6.06C1.71661e-05 5.73 0.270017 5.46 0.600018 5.46ZM0.600018 10.91L12.73 10.91C13.06 10.91 13.33 11.18 13.33 11.52L13.33 12.12C13.33 12.46 13.06 12.73 12.73 12.73L0.600018 12.73C0.270017 12.73 1.71661e-05 12.46 1.71661e-05 12.12L1.71661e-05 11.52C1.71661e-05 11.18 0.270017 10.91 0.600018 10.91ZM10.6 7.79L10.6 4.94C10.6 4.59 11.07 4.41 11.34 4.66L12.9 6.08C13.07 6.24 13.07 6.49 12.9 6.65L11.34 8.07C11.07 8.32 10.6 8.14 10.6 7.79Z"   fill="#2D4D7E" >
</path>
</svg>
