<svg width="19.409546" height="20.000000" viewBox="0 0 19.4095 20" fill="none" xmlns="http://www.w3.org/2000/svg" xmlns:xlink="http://www.w3.org/1999/xlink">
	<desc>
			Created with Pixso.
	</desc>
	<defs>
		<linearGradient x1="9.704385" y1="5.500009" x2="9.704385" y2="24.000000" id="paint_linear_212_47852_0" gradientUnits="userSpaceOnUse">
			<stop stop-color="#FFFFFF"/>
			<stop offset="1.000000" stop-color="#BEE2FF"/>
		</linearGradient>
	</defs>
	<path id="path" d="M0.19 17.8L19.21 17.8C19.34 17.8 19.4 17.88 19.4 18.05L19.4 19.75C19.4 19.91 19.34 20 19.21 20L0.19 20C0.06 20 0 19.91 0 19.75L0 18.05C0 17.88 0.06 17.8 0.19 17.8ZM17.79 3.15L14.82 0.22C14.78 0.18 14.75 0.15 14.7 0.12C14.66 0.09 14.62 0.07 14.57 0.05C14.52 0.03 14.48 0.02 14.43 0.01C14.38 0 14.33 0 14.28 0C14.23 0 14.18 0 14.13 0.01C14.08 0.02 14.03 0.03 13.99 0.05C13.94 0.07 13.9 0.09 13.86 0.12C13.81 0.15 13.77 0.18 13.74 0.22L2.57 11.25C2.47 11.35 2.41 11.46 2.37 11.6L1.4 15.5C1.39 15.56 1.38 15.62 1.38 15.69C1.38 15.75 1.39 15.82 1.41 15.88C1.43 15.94 1.45 16 1.49 16.06C1.52 16.11 1.56 16.16 1.61 16.21C1.65 16.26 1.7 16.3 1.76 16.33C1.82 16.36 1.88 16.39 1.94 16.4C2 16.42 2.07 16.43 2.13 16.43C2.2 16.43 2.26 16.43 2.33 16.41L6.27 15.45C6.41 15.42 6.52 15.35 6.63 15.25L17.8 4.22C17.83 4.18 17.86 4.15 17.89 4.11C17.92 4.06 17.94 4.02 17.96 3.97C17.98 3.93 17.99 3.88 18 3.83C18.01 3.78 18.02 3.74 18.02 3.69C18.02 3.64 18.01 3.59 18 3.54C17.99 3.49 17.98 3.44 17.96 3.4C17.94 3.35 17.92 3.31 17.89 3.27C17.86 3.22 17.83 3.19 17.79 3.15Z" fill="url(#paint_linear_212_47852_0)" fill-opacity="1.000000" fill-rule="nonzero"/>
</svg>
