<svg width="250.000000" height="79.000000" viewBox="0 0 250 79" fill="none" xmlns="http://www.w3.org/2000/svg" xmlns:xlink="http://www.w3.org/1999/xlink">
	<desc>
			Created with Pixso.
	</desc>
	<defs/>
	<path id="欢迎登录系统" d="M188.97 34.51L180.45 34.51L180.45 38.89L193.66 38.89L193.66 50.6L198.33 50.6L198.33 38.89L212.3 38.89L208.99 29.58L204.02 29.58L205.79 34.51L196.22 34.51L205.89 24.6L198.66 24.6L194.77 28.56L191.53 27.55L196.29 22.69Q204.67 22.37 210.61 21.97L210.61 17.54Q195.56 18.48 181.38 18.48L181.38 22.95Q184.04 22.95 189.45 22.88L186.49 25.97L182.43 24.71L182.43 30.01L190.96 32.45L188.97 34.51ZM235.52 19.7L227.6 19.7L227.6 24.24L233.08 24.24L229.98 30.44L227.96 30.44L227.96 34.97L248.02 34.97L244.67 26.23L239.98 26.23L241.61 30.44L235.05 30.44L238.15 24.24L248.12 24.24L248.12 19.7L240.2 19.7L240.2 17.83L235.52 17.83L235.52 19.7ZM81.98 38.39L80.4 38.72L80.4 43.54L90.55 41.45L90.55 36.66L86.62 37.46L86.62 22.98Q88.32 22.84 90.48 22.48L90.48 17.87Q85.83 18.62 81.98 18.62L81.98 38.39ZM130.4 24.35Q129.11 21.8 128.53 18.45L124.14 18.45Q125.08 24.67 127.96 28.63L120.03 28.63Q122.95 24.67 123.85 18.45L110.1 18.45L110.1 22.62L118.34 22.62Q117.26 25.58 115.29 27.55L113.38 23.52L109.05 23.52L111.61 28.96L113.52 28.96Q111.25 30.47 107.8 31.26L107.8 35.83Q109.2 35.54 110.35 35.19L110.35 44.01L114.02 44.01L115.03 46.13L107.8 46.13L107.8 50.38L140.19 50.38L140.19 46.13L132.96 46.13L133.97 44.01L137.6 44.01L137.6 35.19Q138.87 35.54 140.19 35.83L140.19 31.26Q137.53 30.65 135.55 29.61L139.98 27.26L139.98 22.66L133.89 25.87L133.89 28.56Q132.5 27.49 131.5 26.14Q131.28 25.85 131.09 25.54L136.48 22.69L136.48 18.09L130.4 21.29L130.4 24.35ZM52.46 18.12Q51.89 24.93 49.54 30.47L54.48 30.47Q55.52 28.02 56.17 25.03L63.16 25.03Q62.54 27.62 61.5 30.47L66.36 30.47Q66.79 29.15 67.15 27.8Q68.13 24.14 68.52 20.32L56.93 20.32Q57 19.89 57.08 18.88L57.15 18.12L52.46 18.12ZM79.89 26.01L77.41 18.19L72.55 18.19L75.03 26.01L79.89 26.01ZM215.22 31.09L219.43 33.24L215.73 42.1L227.5 42.1L227.5 37.6L223 37.6L227.79 26.11L223.46 26.11L222.24 29.14L220.98 28.53L225.37 18.19L220.62 18.19L215.22 31.09ZM168.06 29.72L143.8 29.72L143.8 33.6L157.66 33.6L157.66 50.77L162.33 50.77L162.33 33.6L176.19 33.6L176.19 29.32L172.63 29.32L172.63 18.48L145.6 18.48L145.6 22.37L168.06 22.37L168.06 24.28L147.39 24.28L147.39 27.81L168.06 27.81L168.06 29.72ZM103.8 18.74L91.41 18.74L91.41 44.73L95.95 44.73L95.95 23.27L99.4 23.27L99.4 38.07L97.25 38.07L97.25 42.57L103.8 42.57L103.8 18.74ZM39.75 40.4Q38.17 42.46 35.76 44.37L35.76 50.38Q39.58 47.5 42.24 44.37Q44.61 47.53 48.39 49.84L48.39 44.26Q46.27 42.64 44.76 40.8Q44.96 40.46 45.16 40.12Q46.91 36.99 47.84 33.39Q48.87 29.39 49.11 24.39L49.37 20.5L36.3 20.5L36.3 24.67L36.95 24.67L36.95 26.04Q36.95 34.58 39.75 40.4ZM41.26 31.41Q41.02 28.74 40.98 24.67L44.8 24.67Q44.54 31.52 42.27 36.3Q41.52 34.08 41.26 31.41ZM54.73 40.76Q53.12 43.7 49.08 45.3L49.08 50.7Q55.74 48.25 58.68 43.5Q59.29 42.52 59.74 41.45Q60.84 42.62 61.64 43.96Q63.33 46.76 63.76 50.31L68.45 50.31Q67.91 45.37 65.6 41.49Q63.83 38.53 61.03 36.19Q61.17 34.79 61.17 33.06L61.17 27.26L56.42 27.26L56.42 33.06Q56.42 37.49 54.83 40.57Q54.78 40.67 54.73 40.76ZM79.75 28.46L71.08 28.46L71.08 33.13L75.15 33.13Q74.96 37.82 74.15 41.87Q73.34 45.91 71.61 50.6L76.59 50.6L77.23 48.47Q79 49.4 81.26 49.82Q83.53 50.24 86.91 50.24L104.55 50.24L104.55 45.66L86.91 45.66Q84.03 45.66 82 45.25Q79.97 44.83 78.34 43.87Q79.14 40.26 79.46 36.63Q79.79 32.99 79.75 28.46ZM130.59 31.48Q132.85 33.42 135.84 34.58L112.15 34.58Q115.14 33.42 117.4 31.48L117.4 32.88L130.59 32.88L130.59 31.48ZM153.8 40.84L151.28 34.72L146.46 34.72L148.98 40.84L153.8 40.84ZM173.53 34.72L168.71 34.72L166.19 40.84L171.01 40.84L173.53 34.72ZM229.97 45.07Q229.08 47.79 226.81 50.6L232.58 50.6Q234.12 47.75 234.8 44.96Q235.48 42.17 235.48 38.82L235.48 36.52L230.88 36.52L230.88 38.82Q230.88 42.35 229.97 45.07ZM244.67 36.52L240.06 36.52L240.06 50.6L248.91 50.6L248.91 45.98L244.67 45.98L244.67 36.52ZM132.92 38.21L132.92 40.26L115.03 40.26L115.03 38.21L132.92 38.21ZM184.08 40.3Q182.82 44.87 180.23 49.59L185.66 49.59Q187.86 45.05 189.09 40.3L184.08 40.3ZM211.76 49.59Q209.17 44.87 207.91 40.3L202.9 40.3Q204.13 45.05 206.33 49.59L211.76 49.59ZM156.47 40.45L144.16 45.84L144.16 50.6L156.47 45.19L156.47 40.45ZM175.83 45.84L163.52 40.45L163.52 45.19L175.83 50.6L175.83 45.84ZM127.96 46.13L120.03 46.13L119.03 44.01L128.96 44.01L127.96 46.13ZM227.5 44.19L215.8 45.74L215.8 50.38L227.5 48.83L227.5 44.19Z" fill="#2D4D7E" fill-opacity="1.000000" fill-rule="evenodd"/>
	<circle id="椭圆 5" r="2.497601" transform="matrix(0.926825 -0.375494 0.375494 0.926825 65.0555 69.302)" fill="#0266F0" fill-opacity="1.000000"/>
	<path id="椭圆 2" d="M60.57 74.92C51.25 79.26 40.91 80.03 31.42 77.71C20.2 74.98 11.23 68.21 5.78 59.49C-0.09 50.09 -1.35 39.34 1.36 29.55C4.02 19.9 10.27 12.01 18.41 6.81C19.69 6 21.36 6.44 22.17 7.73C23.03 9.11 22.55 10.93 21.19 11.84C14.04 16.59 9.22 23.44 7.14 30.97C4.63 40.01 6.27 49.16 10.94 56.64C15.96 64.71 24 70.09 32.93 72.27C41.59 74.4 50.35 73.36 57.82 69.93C59.2 69.29 60.86 69.72 61.66 71C62.53 72.39 62.06 74.23 60.57 74.92Z" fill="#0266F0" fill-opacity="1.000000" fill-rule="evenodd"/>
</svg>
