<svg width="23.333313" height="23.333313" viewBox="0 0 23.3333 23.3333" fill="none" xmlns="http://www.w3.org/2000/svg" xmlns:xlink="http://www.w3.org/1999/xlink">
	<desc>
			Created with Pixso.
	</desc>
	<defs/>
	<path id="矢量 1" d="M0 11.66C0 5.23 5.23 0 11.66 0C18.1 0 23.33 5.23 23.33 11.66C23.33 18.1 18.1 23.33 11.66 23.33C5.23 23.33 0 18.1 0 11.66ZM15.61 21.01C16.82 20.5 17.91 19.77 18.84 18.84C19.77 17.91 20.5 16.82 21.01 15.61C21.54 14.36 21.81 13.03 21.81 11.66C21.81 10.29 21.54 8.96 21.01 7.71C20.5 6.5 19.77 5.41 18.84 4.48C17.91 3.55 16.82 2.82 15.61 2.31C14.36 1.78 13.03 1.51 11.66 1.51C10.29 1.51 8.96 1.78 7.71 2.31C6.5 2.82 5.41 3.55 4.48 4.48C3.55 5.41 2.82 6.5 2.31 7.71C1.78 8.96 1.51 10.29 1.51 11.66C1.51 13.03 1.78 14.36 2.31 15.61C2.82 16.82 3.55 17.91 4.48 18.84C5.41 19.77 6.5 20.5 7.71 21.01C8.96 21.54 10.29 21.81 11.66 21.81C13.03 21.81 14.36 21.54 15.61 21.01ZM5.35 11.46C5.35 10.58 6.06 9.87 6.93 9.87C7.8 9.87 8.51 10.58 8.51 11.46C8.51 12.33 7.8 13.04 6.93 13.04C6.06 13.04 5.35 12.33 5.35 11.46ZM11.87 9.87C12.14 9.87 12.42 9.95 12.66 10.09C13.15 10.37 13.45 10.89 13.45 11.46C13.45 12.33 12.74 13.04 11.87 13.04C11 13.04 10.29 12.33 10.29 11.46C10.29 10.89 10.59 10.37 11.08 10.09C11.32 9.95 11.59 9.87 11.87 9.87ZM15.23 11.46C15.23 10.58 15.94 9.87 16.81 9.87C17.68 9.87 18.39 10.58 18.39 11.46C18.39 12.33 17.68 13.04 16.81 13.04C15.94 13.04 15.23 12.33 15.23 11.46Z" fill="#6FABB0" fill-opacity="1.000000" fill-rule="evenodd"/>
	<path id="矢量 1" d="M0 11.66C0 5.23 5.23 0 11.66 0C18.1 0 23.33 5.23 23.33 11.66C23.33 18.1 18.1 23.33 11.66 23.33C5.23 23.33 0 18.1 0 11.66ZM15.61 21.01C16.82 20.5 17.91 19.77 18.84 18.84C19.77 17.91 20.5 16.82 21.01 15.61C21.54 14.36 21.81 13.03 21.81 11.66C21.81 10.29 21.54 8.96 21.01 7.71C20.5 6.5 19.77 5.41 18.84 4.48C17.91 3.55 16.82 2.82 15.61 2.31C14.36 1.78 13.03 1.51 11.66 1.51C10.29 1.51 8.96 1.78 7.71 2.31C6.5 2.82 5.41 3.55 4.48 4.48C3.55 5.41 2.82 6.5 2.31 7.71C1.78 8.96 1.51 10.29 1.51 11.66C1.51 13.03 1.78 14.36 2.31 15.61C2.82 16.82 3.55 17.91 4.48 18.84C5.41 19.77 6.5 20.5 7.71 21.01C8.96 21.54 10.29 21.81 11.66 21.81C13.03 21.81 14.36 21.54 15.61 21.01ZM6.93 9.87C6.06 9.87 5.35 10.58 5.35 11.46C5.35 12.33 6.06 13.04 6.93 13.04C7.8 13.04 8.51 12.33 8.51 11.46C8.51 10.58 7.8 9.87 6.93 9.87ZM12.66 10.09C12.42 9.95 12.14 9.87 11.87 9.87C11.59 9.87 11.32 9.95 11.08 10.09C10.59 10.37 10.29 10.89 10.29 11.46C10.29 12.33 11 13.04 11.87 13.04C12.74 13.04 13.45 12.33 13.45 11.46C13.45 10.89 13.15 10.37 12.66 10.09ZM16.81 9.87C15.94 9.87 15.23 10.58 15.23 11.46C15.23 12.33 15.94 13.04 16.81 13.04C17.68 13.04 18.39 12.33 18.39 11.46C18.39 10.58 17.68 9.87 16.81 9.87ZM6.49 11.89C6.4 11.79 6.35 11.65 6.35 11.46C6.35 11.26 6.4 11.12 6.49 11.02C6.59 10.92 6.73 10.87 6.93 10.87C7.12 10.87 7.27 10.92 7.36 11.02C7.46 11.12 7.51 11.26 7.51 11.46C7.51 11.65 7.46 11.79 7.36 11.89C7.27 11.99 7.12 12.04 6.93 12.04C6.73 12.04 6.59 11.99 6.49 11.89ZM11.68 10.91C11.74 10.89 11.8 10.87 11.87 10.87C11.93 10.87 11.99 10.88 12.04 10.9C12.08 10.91 12.12 10.93 12.16 10.95C12.25 11.01 12.33 11.08 12.38 11.16C12.42 11.25 12.45 11.34 12.45 11.46C12.45 11.65 12.4 11.79 12.3 11.89C12.21 11.99 12.06 12.04 11.87 12.04C11.67 12.04 11.53 11.99 11.43 11.89C11.34 11.79 11.29 11.65 11.29 11.46C11.29 11.34 11.31 11.25 11.36 11.16C11.41 11.08 11.48 11.01 11.58 10.95C11.61 10.93 11.64 10.92 11.68 10.91ZM16.37 11.89C16.28 11.79 16.23 11.65 16.23 11.46C16.23 11.26 16.28 11.12 16.37 11.02C16.47 10.92 16.61 10.87 16.81 10.87C17 10.87 17.15 10.92 17.24 11.02C17.34 11.12 17.39 11.26 17.39 11.46C17.39 11.65 17.34 11.79 17.24 11.89C17.15 11.99 17 12.04 16.81 12.04C16.61 12.04 16.47 11.99 16.37 11.89Z" fill="#6FABB0" fill-opacity="1.000000" fill-rule="evenodd"/>
</svg>
