<svg width="34.000000" height="34.000000" viewBox="0 0 34 34" fill="none" xmlns="http://www.w3.org/2000/svg" xmlns:xlink="http://www.w3.org/1999/xlink">
	<desc>
			Created with Pixso.
	</desc>
	<defs>
		<clipPath id="clip55_3887">
			<rect id="消息提醒icon" width="34.000000" height="34.000000" fill="white" fill-opacity="0"/>
		</clipPath>
	</defs>
	<g clip-path="url(#clip55_3887)">
		<path id="path" d="M17 8.3C20.72 8.3 23.76 11.34 23.76 15.06L23.76 23.36L24.37 24.01L25.64 25.37L8.35 25.37L9.62 24.01L10.23 23.36L10.23 15.06C10.23 11.34 13.27 8.3 17 8.3ZM17 6.05C12.02 6.05 7.98 10.08 7.98 15.06L7.98 22.47L6.2 24.37C5.04 25.6 5.92 27.62 7.61 27.62L26.38 27.62C28.07 27.62 28.95 25.6 27.79 24.37L26.01 22.47L26.01 15.06C26.01 10.08 21.97 6.05 17 6.05ZM19.25 28.91L14.74 28.91C14.67 28.91 14.59 28.92 14.52 28.93C14.45 28.94 14.38 28.97 14.31 28.99C14.24 29.02 14.18 29.06 14.12 29.1C14.05 29.14 14 29.19 13.94 29.24C13.89 29.29 13.85 29.35 13.8 29.41C13.76 29.47 13.73 29.54 13.7 29.6C13.67 29.67 13.65 29.74 13.64 29.81C13.62 29.89 13.61 29.96 13.61 30.03C13.61 30.11 13.62 30.18 13.64 30.25C13.65 30.33 13.67 30.4 13.7 30.47C13.73 30.53 13.76 30.6 13.8 30.66C13.85 30.72 13.89 30.78 13.94 30.83C14 30.88 14.05 30.93 14.12 30.97C14.18 31.01 14.24 31.05 14.31 31.08C14.38 31.1 14.45 31.13 14.52 31.14C14.59 31.15 14.67 31.16 14.74 31.16L19.25 31.16C19.32 31.16 19.4 31.15 19.47 31.14C19.54 31.13 19.61 31.1 19.68 31.08C19.75 31.05 19.81 31.01 19.87 30.97C19.94 30.93 19.99 30.88 20.05 30.83C20.1 30.78 20.14 30.72 20.19 30.66C20.23 30.6 20.26 30.53 20.29 30.47C20.32 30.4 20.34 30.33 20.35 30.25C20.37 30.18 20.38 30.11 20.38 30.03C20.38 29.96 20.37 29.89 20.35 29.81C20.34 29.74 20.32 29.67 20.29 29.6C20.26 29.54 20.23 29.47 20.19 29.41C20.14 29.35 20.1 29.29 20.05 29.24C19.99 29.19 19.94 29.14 19.87 29.1C19.81 29.06 19.75 29.02 19.68 28.99C19.61 28.97 19.54 28.94 19.47 28.93C19.4 28.92 19.32 28.91 19.25 28.91ZM17.8 2.83L16.19 2.83C16.12 2.83 16.04 2.84 15.97 2.85C15.9 2.86 15.83 2.89 15.76 2.91C15.69 2.94 15.63 2.98 15.56 3.02C15.5 3.06 15.45 3.11 15.39 3.16C15.34 3.21 15.29 3.27 15.25 3.33C15.21 3.39 15.18 3.46 15.15 3.52C15.12 3.59 15.1 3.66 15.08 3.74C15.07 3.81 15.06 3.88 15.06 3.96C15.06 4.03 15.07 4.1 15.08 4.18C15.1 4.25 15.12 4.32 15.15 4.39C15.18 4.45 15.21 4.52 15.25 4.58C15.29 4.64 15.34 4.7 15.39 4.75C15.45 4.8 15.5 4.85 15.56 4.89C15.63 4.93 15.69 4.97 15.76 5C15.83 5.02 15.9 5.05 15.97 5.06C16.04 5.07 16.12 5.08 16.19 5.08L17.8 5.08C17.87 5.08 17.95 5.07 18.02 5.06C18.09 5.05 18.16 5.02 18.23 5C18.3 4.97 18.36 4.93 18.43 4.89C18.49 4.85 18.54 4.8 18.6 4.75C18.65 4.7 18.7 4.64 18.74 4.58C18.78 4.52 18.81 4.45 18.84 4.39C18.87 4.32 18.89 4.25 18.91 4.18C18.92 4.1 18.93 4.03 18.93 3.96C18.93 3.88 18.92 3.81 18.91 3.74C18.89 3.66 18.87 3.59 18.84 3.52C18.81 3.46 18.78 3.39 18.74 3.33C18.7 3.27 18.65 3.21 18.6 3.16C18.54 3.11 18.49 3.06 18.43 3.02C18.36 2.98 18.3 2.94 18.23 2.91C18.16 2.89 18.09 2.86 18.02 2.85C17.95 2.84 17.87 2.83 17.8 2.83Z" fill="#FFFFFF" fill-opacity="1.000000" fill-rule="nonzero"/>
	</g>
</svg>
