<svg width="20.004143" height="20.001644" viewBox="0 0 20.0041 20.0016" fill="none" xmlns="http://www.w3.org/2000/svg" xmlns:xlink="http://www.w3.org/1999/xlink">
	<desc>
			Created with Pixso.
	</desc>
	<defs>
		<linearGradient x1="10.003778" y1="5.504147" x2="10.003778" y2="24.004141" id="paint_linear_3_3_0" gradientUnits="userSpaceOnUse">
			<stop stop-color="#FFFFFF"/>
			<stop offset="1.000000" stop-color="#BEE2FF"/>
		</linearGradient>
	</defs>
	<path id="path" d="M19.21 6.11C19.13 5.93 19.05 5.74 18.96 5.56C18.87 5.37 18.77 5.19 18.67 5.02C18.57 4.84 18.46 4.66 18.35 4.49C18.23 4.32 18.12 4.16 17.99 3.99C17.87 3.83 17.74 3.67 17.61 3.51C17.48 3.36 17.34 3.21 17.2 3.06C17.06 2.91 16.91 2.77 16.76 2.63C16.61 2.49 16.46 2.36 16.3 2.23C16.14 2.1 15.98 1.98 15.81 1.86C15.64 1.74 15.47 1.63 15.3 1.52C15.13 1.41 14.95 1.31 14.77 1.21C14.59 1.11 14.41 1.02 14.22 0.93C14.04 0.85 13.85 0.77 13.66 0.69C13.47 0.62 13.28 0.55 13.08 0.48C12.89 0.42 12.69 0.36 12.5 0.31C12.3 0.26 12.1 0.22 11.9 0.18C11.7 0.14 11.5 0.11 11.29 0.08C11.09 0.05 10.89 0.03 10.68 0.02C10.48 0 10.28 0 10.07 0C9.87 -0.01 9.66 0 9.46 0.01C9.25 0.02 9.05 0.04 8.85 0.06C8.64 0.08 8.44 0.11 8.24 0.15C8.04 0.19 7.84 0.23 7.64 0.28C7.44 0.32 7.25 0.38 7.05 0.44C6.85 0.5 6.66 0.56 6.47 0.64C6.28 0.71 6.09 0.79 5.9 0.87C5.72 0.95 5.53 1.04 5.35 1.14C5.17 1.23 4.99 1.33 4.82 1.44C4.64 1.54 4.47 1.66 4.3 1.77C4.14 1.89 3.97 2.01 3.81 2.14C3.65 2.26 3.49 2.39 3.34 2.53C3.19 2.67 3.04 2.81 2.9 2.95C2.75 3.1 2.61 3.25 2.48 3.4C2.34 3.55 2.21 3.71 2.09 3.87C1.96 4.03 1.84 4.2 1.73 4.37C1.61 4.54 1.5 4.71 1.4 4.89C1.29 5.06 1.2 5.24 1.1 5.42C1.01 5.6 0.92 5.79 0.84 5.97C0.76 6.16 0.68 6.35 0.61 6.54C0.54 6.74 0.47 6.93 0.42 7.12C0.36 7.32 0.3 7.52 0.26 7.72C0.21 7.92 0.17 8.12 0.14 8.32C0.1 8.52 0.07 8.72 0.05 8.92C0.03 9.13 0.02 9.33 0.01 9.54C0 9.74 -0.01 9.94 0 10.15C0 10.35 0.01 10.56 0.02 10.76C0.04 10.96 0.06 11.17 0.09 11.37C0.12 11.57 0.15 11.77 0.19 11.97C0.23 12.18 0.28 12.37 0.33 12.57C0.39 12.77 0.44 12.96 0.51 13.16C0.57 13.35 0.64 13.54 0.72 13.73C0.8 13.92 0.88 14.11 0.97 14.29C1.05 14.48 1.15 14.66 1.25 14.84C1.35 15.02 1.45 15.19 1.56 15.37C1.67 15.54 1.79 15.71 1.91 15.87C2.03 16.04 2.15 16.2 2.28 16.36C2.41 16.52 2.55 16.67 2.68 16.82C2.82 16.97 2.97 17.11 3.12 17.25C3.26 17.39 3.42 17.53 3.57 17.66C3.73 17.79 3.89 17.92 4.06 18.04C4.22 18.16 4.39 18.28 4.56 18.39C4.73 18.5 4.91 18.61 5.08 18.71C5.26 18.81 5.44 18.9 5.63 18.99C5.81 19.08 6 19.16 6.19 19.24C6.38 19.32 6.57 19.39 6.76 19.46C6.95 19.52 7.15 19.58 7.35 19.64C7.54 19.69 7.74 19.74 7.94 19.78C8.14 19.82 8.34 19.86 8.54 19.89C8.75 19.92 8.95 19.94 9.15 19.96C9.36 19.98 9.56 19.99 9.77 19.99C9.97 20 10.17 20 10.38 19.99C10.58 19.98 10.79 19.97 10.99 19.95C11.19 19.93 11.4 19.9 11.6 19.87C11.8 19.83 12 19.79 12.2 19.75C12.4 19.7 12.6 19.65 12.79 19.6C12.99 19.54 13.18 19.48 13.38 19.41C13.57 19.34 13.76 19.26 13.95 19.18C14.13 19.1 14.32 19.01 14.5 18.92C14.68 18.83 14.86 18.73 15.04 18.63C15.22 18.53 15.39 18.42 15.56 18.3C15.73 18.19 15.89 18.07 16.06 17.95C16.22 17.82 16.38 17.7 16.53 17.56C16.69 17.43 16.84 17.29 16.98 17.15C17.13 17 17.27 16.86 17.41 16.71C17.55 16.55 17.68 16.4 17.81 16.24C17.93 16.08 18.06 15.92 18.17 15.75C18.29 15.58 18.4 15.41 18.51 15.24C18.62 15.06 18.72 14.89 18.82 14.7C18.91 14.52 19 14.34 19.09 14.16C19.17 13.97 19.25 13.78 19.33 13.59C19.4 13.4 19.47 13.21 19.53 13.01C19.59 12.82 19.65 12.62 19.7 12.42C19.75 12.22 19.79 12.02 19.83 11.82C19.86 11.62 19.89 11.42 19.92 11.22C19.95 11.02 19.96 10.81 19.98 10.61C19.99 10.4 20 10.2 20 10C20 9.33 19.93 8.67 19.8 8.02C19.67 7.36 19.47 6.73 19.21 6.11ZM14.41 10.66L10.69 10.66L10.69 14.38C10.69 14.42 10.69 14.47 10.68 14.51C10.67 14.55 10.66 14.59 10.64 14.63C10.63 14.68 10.6 14.71 10.58 14.75C10.56 14.79 10.53 14.82 10.5 14.85C10.47 14.88 10.43 14.91 10.4 14.93C10.36 14.96 10.32 14.98 10.28 15C10.24 15.01 10.2 15.03 10.16 15.03C10.11 15.04 10.07 15.05 10.03 15.05C9.98 15.05 9.94 15.04 9.89 15.03C9.85 15.03 9.81 15.01 9.77 15C9.73 14.98 9.69 14.96 9.65 14.93C9.62 14.9 9.49 14.79 9.47 14.75C9.45 14.71 9.42 14.68 9.41 14.63C9.39 14.59 9.38 14.55 9.37 14.51C9.36 14.47 9.36 14.42 9.36 14.38L9.36 10.66L5.64 10.66C5.6 10.66 5.55 10.66 5.51 10.65C5.47 10.64 5.43 10.63 5.39 10.61C5.34 10.6 5.31 10.57 5.27 10.55C5.24 10.52 5.11 10.4 5.09 10.37C5.06 10.33 5.04 10.29 5.02 10.25C5.01 10.21 4.99 10.17 4.99 10.13C4.98 10.08 4.97 10.04 4.97 10C4.97 9.95 4.98 9.91 4.99 9.86C4.99 9.82 5.01 9.78 5.02 9.74C5.04 9.7 5.06 9.66 5.09 9.62C5.12 9.59 5.23 9.46 5.27 9.44C5.31 9.42 5.34 9.39 5.39 9.38C5.43 9.36 5.47 9.35 5.51 9.34C5.55 9.33 5.6 9.33 5.64 9.33L9.36 9.33L9.36 5.61C9.36 5.57 9.36 5.52 9.37 5.48C9.38 5.44 9.39 5.4 9.41 5.36C9.42 5.31 9.45 5.28 9.47 5.24C9.5 5.21 9.62 5.08 9.65 5.06C9.69 5.03 9.73 5.01 9.77 4.99C9.81 4.98 9.85 4.96 9.89 4.96C9.94 4.95 9.98 4.94 10.03 4.94C10.07 4.94 10.11 4.95 10.16 4.96C10.2 4.96 10.24 4.98 10.28 4.99C10.32 5.01 10.36 5.03 10.4 5.06C10.43 5.08 10.47 5.11 10.5 5.14C10.52 5.18 10.63 5.31 10.64 5.36C10.66 5.4 10.67 5.44 10.68 5.48C10.69 5.52 10.69 5.57 10.69 5.61L10.69 9.33L14.41 9.33C14.45 9.33 14.5 9.33 14.54 9.34C14.58 9.35 14.62 9.36 14.66 9.38C14.71 9.39 14.74 9.42 14.78 9.44C14.82 9.46 14.85 9.49 14.88 9.52C14.91 9.56 15.01 9.7 15.03 9.74C15.04 9.78 15.06 9.82 15.06 9.86C15.07 9.91 15.08 9.95 15.08 10C15.08 10.04 15.07 10.08 15.06 10.13C15.06 10.17 15.04 10.21 15.03 10.25C15.01 10.29 14.99 10.33 14.96 10.37C14.94 10.4 14.91 10.44 14.88 10.47C14.85 10.5 14.82 10.53 14.78 10.55C14.74 10.57 14.71 10.6 14.66 10.61C14.62 10.63 14.58 10.64 14.54 10.65C14.5 10.66 14.45 10.66 14.41 10.66Z" fill="url(#paint_linear_3_3_0)" fill-opacity="1.000000" fill-rule="nonzero"/>
</svg>
