<svg width="22.000000" height="17.368408" viewBox="0 0 22 17.3684" fill="none" xmlns="http://www.w3.org/2000/svg" xmlns:xlink="http://www.w3.org/1999/xlink">
	<desc>
			Created with Pixso.
	</desc>
	<defs>
		<linearGradient x1="10.999594" y1="4.776317" x2="10.999594" y2="20.842077" id="paint_linear_252_40567_0" gradientUnits="userSpaceOnUse">
			<stop stop-color="#FFFFFF"/>
			<stop offset="1.000000" stop-color="#BEE2FF"/>
		</linearGradient>
	</defs>
	<path id="path" d="M16.51 6.12C16.53 6.1 16.54 6.08 16.55 6.05C16.56 6.02 16.55 6 16.54 5.97C16.54 5.95 16.52 5.93 16.5 5.91C16.48 5.9 16.46 5.89 16.43 5.89L13.02 5.89L13.03 0.4C13.03 0.34 13.02 0.29 13 0.24C12.99 0.19 12.96 0.15 12.92 0.11C12.89 0.07 12.85 0.05 12.81 0.03C12.76 0 12.71 -0.01 12.66 0L9.33 0C9.28 0 9.23 0.01 9.19 0.03C9.14 0.05 9.1 0.08 9.07 0.11C9 0.19 8.96 0.29 8.96 0.4L8.97 5.89L5.56 5.89C5.53 5.89 5.51 5.9 5.49 5.91C5.47 5.93 5.45 5.95 5.45 5.97C5.44 6 5.43 6.02 5.44 6.05C5.45 6.08 5.46 6.1 5.48 6.12L10.75 11.44C10.78 11.48 10.82 11.5 10.86 11.52C10.9 11.54 10.95 11.55 11 11.55C11.04 11.55 11.09 11.54 11.13 11.52C11.17 11.5 11.21 11.48 11.25 11.44L16.51 6.12ZM21.76 11.79L18.46 8.98C18.35 8.89 18.23 8.82 18.09 8.77C17.96 8.73 17.83 8.7 17.69 8.69L16.38 8.69L20.11 12.15L15.78 12.16L14.17 14.68L7.81 14.68L6.26 12.16L1.96 12.15L5.82 8.69L4.3 8.69C4.16 8.7 4.03 8.73 3.89 8.77C3.76 8.82 3.64 8.89 3.53 8.98L0.23 11.79C0.04 11.95 -0.05 12.28 0.02 12.52L1.34 16.92C1.41 17.16 1.67 17.36 1.9 17.36L20.11 17.36C20.35 17.36 20.6 17.16 20.67 16.92L21.97 12.52C22.04 12.28 21.95 11.95 21.76 11.79Z" fill="url(#paint_linear_252_40567_0)" fill-opacity="1.000000" fill-rule="nonzero"/>
</svg>
