<svg width="14.396484" height="14.044922" viewBox="0 0 14.3965 14.0449" fill="none" xmlns="http://www.w3.org/2000/svg" xmlns:xlink="http://www.w3.org/1999/xlink">
	<desc>
			Created with Pixso.
	</desc>
	<defs/>
	<path id="path" d="M8.53 0C9.14 0 9.64 0.49 9.65 1.1L9.65 1.12L9.65 3.65C9.65 4.27 9.16 4.77 8.55 4.78L8.53 4.78L7.75 4.78L7.75 5.78L10.74 5.78C11.73 5.78 12.55 6.58 12.56 7.58L12.56 7.61L12.56 9.26L13.27 9.26C13.88 9.26 14.38 9.75 14.39 10.37L14.39 10.38L14.39 12.91C14.39 13.53 13.9 14.03 13.29 14.04L13.27 14.04L10.74 14.04C10.12 14.04 9.62 13.55 9.61 12.93L9.61 12.91L9.61 10.38C9.61 9.77 10.1 9.27 10.72 9.26L10.74 9.26L11.44 9.26L11.44 7.61C11.44 7.22 11.13 6.91 10.75 6.9L10.74 6.9L3.65 6.9C3.27 6.9 2.95 7.21 2.95 7.59L2.95 7.61L2.95 9.26L3.65 9.26C4.27 9.26 4.77 9.75 4.78 10.37L4.78 10.38L4.78 12.91C4.78 13.53 4.28 14.03 3.67 14.04L3.65 14.04L1.12 14.04C0.5 14.04 0.01 13.55 0 12.93L0 12.91L0 10.38C0 9.77 0.49 9.27 1.1 9.26L1.12 9.26L1.82 9.26L1.82 7.61C1.82 6.61 2.63 5.79 3.62 5.78L3.65 5.78L6.62 5.78L6.62 4.78L6 4.78C5.38 4.78 4.88 4.28 4.87 3.67L4.87 3.65L4.87 1.12C4.87 0.5 5.37 0.01 5.98 0L6 0L8.53 0ZM13.27 10.38L10.74 10.38L10.74 12.91L13.27 12.91L13.27 10.38ZM3.65 10.38L1.12 10.38L1.12 12.91L3.65 12.91L3.65 10.38ZM8.53 1.12L6 1.12L6 3.65L8.53 3.65L8.53 1.12Z" fill="#FFFFFF" fill-opacity="1.000000" fill-rule="nonzero"/>
</svg>
