<svg width="34.000000" height="34.000000" viewBox="0 0 34 34" fill="none" xmlns="http://www.w3.org/2000/svg" xmlns:xlink="http://www.w3.org/1999/xlink">
	<desc>
			Created with Pixso.
	</desc>
	<defs>
		<clipPath id="clip22_25706">
			<rect id="取消 icon" rx="5.666667" width="34.000000" height="34.000000" fill="white" fill-opacity="0"/>
		</clipPath>
		<linearGradient x1="0.000002" y1="0.000000" x2="34.000000" y2="33.999996" id="paint_linear_22_25706_0" gradientUnits="userSpaceOnUse">
			<stop stop-color="#90D5B2"/>
			<stop offset="0.083969" stop-color="#A8DFC3"/>
			<stop offset="1.000000" stop-color="#4FBC85"/>
		</linearGradient>
	</defs>
	<g opacity="0.800000">
		<rect id="取消 icon" rx="5.666667" width="34.000000" height="34.000000" fill="url(#paint_linear_22_25706_0)" fill-opacity="1.000000"/>
		<g clip-path="url(#clip22_25706)">
			<path id="path" d="M24.7 10.24C20.8 6.34 14.44 6.34 10.54 10.24C6.65 14.14 6.65 20.5 10.54 24.4C14.44 28.29 20.8 28.29 24.7 24.4C28.59 20.5 28.59 14.14 24.7 10.24ZM21.16 19.86C21.44 20.14 21.44 20.57 21.16 20.86C21.02 21 20.84 21.07 20.66 21.07C20.48 21.07 20.3 21 20.16 20.86L17.62 18.32L15.08 20.86C14.8 21.14 14.37 21.14 14.08 20.86C13.8 20.57 13.8 20.14 14.08 19.86L16.62 17.32L14.08 14.78C13.8 14.49 13.8 14.06 14.08 13.78C14.37 13.49 14.8 13.49 15.08 13.78L17.62 16.32L20.16 13.78C20.44 13.49 20.87 13.49 21.16 13.78C21.44 14.06 21.44 14.49 21.16 14.78L18.62 17.32L21.16 19.86Z" fill="#FFFFFF" fill-opacity="1.000000" fill-rule="nonzero"/>
		</g>
	</g>
</svg>
