<svg width="34.000000" height="34.000000" viewBox="0 0 34 34" fill="none" xmlns="http://www.w3.org/2000/svg" xmlns:xlink="http://www.w3.org/1999/xlink">
	<desc>
			Created with Pixso.
	</desc>
	<defs>
		<clipPath id="clip22_25700">
			<rect id="通过 icon" rx="5.666667" width="34.000000" height="34.000000" fill="white" fill-opacity="0"/>
		</clipPath>
		<linearGradient x1="0.000002" y1="0.000000" x2="34.000000" y2="33.999996" id="paint_linear_22_25700_0" gradientUnits="userSpaceOnUse">
			<stop stop-color="#90D5B2"/>
			<stop offset="0.083969" stop-color="#A8DFC3"/>
			<stop offset="1.000000" stop-color="#4FBC85"/>
		</linearGradient>
	</defs>
	<g opacity="0.800000">
		<rect id="通过 icon" rx="5.666667" width="34.000000" height="34.000000" fill="url(#paint_linear_22_25700_0)" fill-opacity="1.000000"/>
		<g clip-path="url(#clip22_25700)">
			<path id="path" d="M21.33 7.08C22.7 7.08 23.8 8.18 23.8 9.54L23.8 15.7C23.57 15.67 23.34 15.66 23.11 15.66C19.83 15.66 17.17 18.3 17.17 21.57C17.17 23.93 18.56 25.96 20.57 26.91L8.13 26.91C6.77 26.91 5.66 25.81 5.66 24.45L5.66 9.54C5.66 8.18 6.77 7.08 8.13 7.08L21.33 7.08ZM23.11 16.43C25.93 16.43 28.22 18.72 28.22 21.54C28.22 24.37 25.93 26.65 23.11 26.65C20.28 26.65 17.99 24.37 17.99 21.54C17.99 18.72 20.28 16.43 23.11 16.43ZM25.26 19.75L25.25 19.75L22.01 22.74L20.84 21.79L20.83 21.78C20.61 21.61 20.29 21.64 20.11 21.86C19.94 22.08 19.97 22.4 20.18 22.58L20.19 22.58L21.68 23.8L21.69 23.81C21.79 23.89 21.9 23.92 22.03 23.91C22.1 23.92 22.16 23.91 22.22 23.89C22.29 23.86 22.34 23.83 22.39 23.79L22.4 23.78L25.95 20.51L25.96 20.5C26.16 20.3 26.17 19.99 25.98 19.78C25.79 19.57 25.47 19.56 25.26 19.75ZM15.35 17.46L9.16 17.46L9.14 17.46C8.78 17.46 8.49 17.76 8.49 18.12C8.49 18.49 8.78 18.79 9.14 18.79L9.16 18.79L15.35 18.79L15.36 18.79C15.72 18.78 16.01 18.49 16.01 18.12C16.01 17.76 15.72 17.46 15.35 17.46ZM18.78 12.24L9.16 12.24L9.14 12.24C8.78 12.25 8.49 12.55 8.49 12.91C8.49 13.28 8.78 13.57 9.14 13.58L9.16 13.58L18.78 13.58L18.8 13.58C19.16 13.57 19.45 13.27 19.45 12.91C19.45 12.54 19.15 12.24 18.78 12.24Z" fill="#FFFFFF" fill-opacity="1.000000" fill-rule="nonzero"/>
		</g>
	</g>
</svg>
