<svg width="16.000000" height="16.000000" viewBox="0 0 16 16" fill="none" xmlns="http://www.w3.org/2000/svg" xmlns:xlink="http://www.w3.org/1999/xlink">
	<desc>
			Created with Pixso.
	</desc>
	<defs>
		<clipPath id="clip18_19543">
			<rect id="收起" width="16.000000" height="16.000000" fill="white" fill-opacity="0"/>
		</clipPath>
	</defs>
	<rect id="收起" width="16.000000" height="16.000000" fill="#FFFFFF" fill-opacity="1.000000"/>
	<g clip-path="url(#clip18_19543)">
		<path id="Vector" d="M14.06 1.63L1.93 1.63C1.6 1.63 1.33 1.9 1.33 2.24L1.33 2.84C1.33 3.18 1.6 3.45 1.93 3.45L14.06 3.45C14.39 3.45 14.66 3.18 14.66 2.84L14.66 2.24C14.66 1.9 14.39 1.63 14.06 1.63ZM14.06 7.09L6.18 7.09C5.84 7.09 5.57 7.36 5.57 7.69L5.57 8.3C5.57 8.63 5.84 8.9 6.18 8.9L14.05 8.9C14.39 8.9 14.66 8.63 14.66 8.3L14.66 7.69C14.66 7.36 14.39 7.09 14.06 7.09ZM14.06 12.54L1.93 12.54C1.6 12.54 1.33 12.81 1.33 13.15L1.33 13.75C1.33 14.09 1.6 14.36 1.93 14.36L14.06 14.36C14.39 14.36 14.66 14.09 14.66 13.75L14.66 13.15C14.66 12.81 14.39 12.54 14.06 12.54ZM4.06 9.42L4.06 6.57C4.06 6.22 3.59 6.04 3.32 6.29L1.76 7.71C1.59 7.87 1.59 8.12 1.76 8.28L3.32 9.7C3.59 9.95 4.06 9.77 4.06 9.42Z" fill="#2D4D7E" fill-opacity="1.000000" fill-rule="nonzero"/>
	</g>
</svg>
