<svg width="34.000000" height="34.000000" viewBox="0 0 34 34" fill="none" xmlns="http://www.w3.org/2000/svg" xmlns:xlink="http://www.w3.org/1999/xlink">
	<desc>
			Created with Pixso.
	</desc>
	<defs>
		<clipPath id="clip22_25704">
			<rect id="未通过 icon" rx="5.666667" width="34.000000" height="34.000000" fill="white" fill-opacity="0"/>
		</clipPath>
		<linearGradient x1="0.000002" y1="0.000000" x2="34.000000" y2="33.999996" id="paint_linear_22_25704_0" gradientUnits="userSpaceOnUse">
			<stop stop-color="#A8BEFD"/>
			<stop offset="0.083969" stop-color="#A9BFFD"/>
			<stop offset="1.000000" stop-color="#638BFF"/>
		</linearGradient>
	</defs>
	<g opacity="0.800000">
		<rect id="未通过 icon" rx="5.666667" width="34.000000" height="34.000000" fill="url(#paint_linear_22_25704_0)" fill-opacity="1.000000"/>
		<g clip-path="url(#clip22_25704)">
			<path id="path" d="M23.21 17.31C22.43 17.32 21.7 17.48 21.03 17.82C19.59 18.55 18.76 19.75 18.4 21.29C18.16 22.34 18.18 23.41 18.61 24.41C18.88 25.02 19.29 25.56 19.64 26.12C19.67 26.18 19.72 26.23 19.77 26.31C19.71 26.31 19.66 26.32 19.61 26.32C15.94 26.32 12.27 26.32 8.6 26.32C7.77 26.32 7.08 25.63 7.08 24.79C7.08 19.63 7.08 14.47 7.08 9.3C7.08 8.48 7.77 7.79 8.59 7.79C12.97 7.79 17.34 7.79 21.71 7.79C22.52 7.79 23.22 8.47 23.22 9.26C23.23 11.91 23.22 14.55 23.22 17.19C23.22 17.23 23.22 17.26 23.21 17.31ZM15.01 15.91C13.59 15.91 12.17 15.9 10.75 15.92C10.53 15.92 10.31 16 10.1 16.09C10 16.14 9.91 16.28 9.89 16.39C9.8 16.77 10.36 17.44 10.75 17.44C13.63 17.44 16.51 17.44 19.39 17.44C19.75 17.44 20.07 17.17 20.16 16.8C20.23 16.52 20.05 16.16 19.73 16.01C19.6 15.94 19.43 15.91 19.28 15.91C17.86 15.91 16.43 15.91 15.01 15.91ZM13.24 21.5C14.08 21.5 14.93 21.5 15.77 21.5C16.22 21.5 16.6 21.17 16.61 20.76C16.62 20.35 16.25 19.98 15.8 19.98C14.1 19.97 12.39 19.97 10.69 19.98C10.25 19.98 9.87 20.35 9.88 20.74C9.88 21.16 10.26 21.5 10.72 21.5C11.56 21.5 12.4 21.5 13.24 21.5ZM12.53 12.99C13.16 12.99 13.78 12.99 14.4 12.99C14.84 12.98 15.23 12.63 15.21 12.23C15.2 11.77 14.74 11.46 14.39 11.47C13.16 11.49 11.93 11.47 10.7 11.48C10.61 11.48 10.52 11.48 10.44 11.51C10.08 11.62 9.83 12 9.88 12.33C9.94 12.69 10.29 12.98 10.67 12.99C11.29 12.99 11.91 12.99 12.53 12.99Z" fill="#FFFFFF" fill-opacity="1.000000" fill-rule="nonzero"/>
			<path id="path" d="M23.48 18.96C25.26 18.96 26.91 20.61 26.91 22.39C26.91 24.17 25.26 25.81 23.48 25.81C21.69 25.81 20.05 24.17 20.05 22.39C20.05 20.54 21.63 18.96 23.48 18.96ZM23.35 21.89C22.93 21.47 22.53 21.07 22.13 20.67C21.96 20.49 21.72 20.47 21.58 20.61C21.43 20.76 21.45 20.99 21.62 21.17C21.98 21.53 22.34 21.89 22.7 22.24C22.74 22.29 22.79 22.34 22.85 22.42C22.78 22.47 22.72 22.51 22.67 22.57C22.31 22.92 21.96 23.27 21.61 23.62C21.46 23.77 21.43 23.93 21.53 24.1C21.62 24.25 21.77 24.28 21.92 24.24C22 24.22 22.08 24.15 22.15 24.09C22.55 23.7 22.94 23.3 23.38 22.86C23.44 22.94 23.48 23.02 23.53 23.08C23.88 23.43 24.24 23.78 24.59 24.13C24.74 24.27 24.93 24.3 25.07 24.2C25.23 24.1 25.25 23.95 25.2 23.79C25.18 23.71 25.1 23.63 25.04 23.57C24.65 23.17 24.26 22.78 23.83 22.35C23.91 22.3 23.97 22.27 24.03 22.22C24.39 21.86 24.75 21.49 25.12 21.13C25.25 21 25.26 20.84 25.18 20.68C25.09 20.52 24.93 20.49 24.78 20.53C24.69 20.56 24.61 20.62 24.55 20.69C24.15 21.08 23.77 21.47 23.35 21.89Z" fill="#FFFFFF" fill-opacity="1.000000" fill-rule="nonzero"/>
		</g>
	</g>
</svg>
