<svg width="34.000000" height="34.000000" viewBox="0 0 34 34" fill="none" xmlns="http://www.w3.org/2000/svg" xmlns:xlink="http://www.w3.org/1999/xlink">
	<desc>
			Created with Pixso.
	</desc>
	<defs>
		<clipPath id="clip22_25698">
			<rect id="总检测 icon" rx="5.666667" width="34.000000" height="34.000000" fill="white" fill-opacity="0"/>
		</clipPath>
		<linearGradient x1="0.000002" y1="0.000000" x2="34.000000" y2="33.999996" id="paint_linear_22_25698_0" gradientUnits="userSpaceOnUse">
			<stop stop-color="#A8BEFD"/>
			<stop offset="0.083969" stop-color="#A9BFFD"/>
			<stop offset="1.000000" stop-color="#638BFF"/>
		</linearGradient>
	</defs>
	<g opacity="0.800000">
		<rect id="总检测 icon" rx="5.666667" width="34.000000" height="34.000000" fill="url(#paint_linear_22_25698_0)" fill-opacity="1.000000"/>
		<g clip-path="url(#clip22_25698)">
			<path id="path" d="M24.91 7.08L8.98 7.08C8.92 7.08 8.86 7.08 8.79 7.09C8.73 7.09 8.67 7.1 8.61 7.11C8.55 7.13 8.49 7.14 8.43 7.16C8.37 7.18 8.31 7.2 8.25 7.22C8.19 7.25 8.14 7.27 8.08 7.3C8.03 7.33 7.98 7.36 7.92 7.4C7.87 7.43 7.82 7.47 7.77 7.51C7.73 7.55 7.68 7.59 7.64 7.64C7.59 7.68 7.55 7.73 7.51 7.77C7.47 7.82 7.43 7.87 7.4 7.92C7.36 7.98 7.33 8.03 7.3 8.08C7.27 8.14 7.25 8.19 7.22 8.25C7.2 8.31 7.18 8.37 7.16 8.43C7.14 8.49 7.13 8.55 7.12 8.61C7.1 8.67 7.09 8.73 7.09 8.79C7.08 8.86 7.08 8.92 7.08 8.98L7.08 21.34L26.81 21.34L26.81 8.98C26.81 8.92 26.81 8.86 26.8 8.79C26.8 8.73 26.79 8.67 26.78 8.61C26.76 8.55 26.75 8.49 26.73 8.43C26.71 8.37 26.69 8.31 26.67 8.25C26.64 8.19 26.62 8.14 26.59 8.08C26.56 8.03 26.53 7.98 26.49 7.92C26.46 7.87 26.42 7.82 26.38 7.77C26.34 7.73 26.3 7.68 26.25 7.64C26.21 7.59 26.16 7.55 26.12 7.51C26.07 7.47 26.02 7.43 25.97 7.4C25.91 7.36 25.86 7.33 25.81 7.3C25.75 7.27 25.7 7.25 25.64 7.22C25.58 7.2 25.52 7.18 25.46 7.16C25.4 7.14 25.34 7.13 25.28 7.11C25.22 7.1 25.16 7.09 25.1 7.09C25.03 7.08 24.97 7.08 24.91 7.08ZM24.4 14.6C24.4 14.99 24.09 15.31 23.69 15.31L21.43 15.31C21.38 15.31 21.33 15.3 21.29 15.27C21.24 15.25 21.21 15.21 21.19 15.16L20.99 14.73C20.97 14.69 20.94 14.66 20.91 14.63C20.87 14.61 20.83 14.59 20.78 14.59C20.74 14.59 20.7 14.6 20.66 14.62C20.62 14.65 20.59 14.68 20.57 14.72L18.46 18.65C18.42 18.73 18.36 18.79 18.29 18.83C18.21 18.88 18.13 18.9 18.04 18.9C17.96 18.9 17.88 18.88 17.8 18.84C17.73 18.79 17.67 18.73 17.62 18.66L14.28 12.68C14.25 12.64 14.22 12.61 14.18 12.59C14.14 12.57 14.1 12.56 14.05 12.56C14 12.57 13.96 12.58 13.93 12.61C13.89 12.64 13.86 12.67 13.85 12.71L12.97 15.01C12.96 15.05 12.93 15.09 12.9 15.13C12.87 15.17 12.84 15.2 12.8 15.23C12.76 15.26 12.72 15.28 12.67 15.29C12.63 15.31 12.58 15.31 12.53 15.31L10.2 15.31C10.15 15.31 10.11 15.31 10.06 15.3C10.01 15.29 9.97 15.28 9.93 15.26C9.88 15.24 9.84 15.22 9.8 15.19C9.76 15.17 9.73 15.14 9.69 15.1C9.66 15.07 9.63 15.04 9.61 15C9.58 14.96 9.56 14.92 9.54 14.87C9.52 14.83 9.51 14.79 9.5 14.74C9.49 14.69 9.49 14.65 9.49 14.6C9.49 14.55 9.49 14.51 9.5 14.46C9.51 14.42 9.52 14.37 9.54 14.33C9.56 14.28 9.58 14.24 9.61 14.2C9.63 14.17 9.66 14.13 9.69 14.1C9.73 14.06 9.76 14.03 9.8 14.01C9.84 13.98 9.88 13.96 9.93 13.94C9.97 13.92 10.01 13.91 10.06 13.9C10.11 13.89 10.15 13.89 10.2 13.89L11.54 13.89C11.74 13.89 11.92 13.77 11.99 13.58L13.41 9.83C13.43 9.79 13.45 9.75 13.48 9.71C13.51 9.68 13.54 9.64 13.57 9.62C13.61 9.59 13.65 9.57 13.69 9.55C13.73 9.54 13.78 9.53 13.82 9.52C13.87 9.52 13.91 9.52 13.96 9.53C14 9.54 14.04 9.56 14.08 9.58C14.12 9.6 14.16 9.63 14.19 9.66C14.22 9.69 14.25 9.73 14.27 9.77L17.81 16.07C17.83 16.11 17.86 16.14 17.9 16.16C17.93 16.18 17.97 16.19 18.02 16.19C18.06 16.19 18.1 16.18 18.14 16.16C18.18 16.13 18.2 16.1 18.22 16.06L20.44 11.94C20.48 11.86 20.54 11.8 20.62 11.75C20.7 11.71 20.78 11.69 20.87 11.69C20.96 11.69 21.04 11.72 21.12 11.77C21.19 11.82 21.25 11.88 21.29 11.97L22.05 13.61C22.12 13.78 22.29 13.89 22.48 13.89L23.69 13.89C24.09 13.89 24.4 14.21 24.4 14.6ZM7.08 22.16L7.08 25.01C7.08 25.07 7.08 25.13 7.09 25.2C7.09 25.26 7.1 25.32 7.12 25.38C7.13 25.44 7.14 25.5 7.16 25.56C7.18 25.62 7.2 25.68 7.22 25.74C7.25 25.8 7.27 25.85 7.3 25.91C7.33 25.96 7.36 26.01 7.4 26.07C7.43 26.12 7.47 26.17 7.51 26.22C7.55 26.26 7.59 26.31 7.64 26.35C7.68 26.4 7.73 26.44 7.77 26.48C7.82 26.52 7.87 26.56 7.92 26.59C7.98 26.63 8.03 26.66 8.08 26.69C8.14 26.72 8.19 26.74 8.25 26.77C8.31 26.79 8.37 26.81 8.43 26.83C8.49 26.85 8.55 26.86 8.61 26.88C8.67 26.89 8.73 26.9 8.79 26.9C8.86 26.91 8.92 26.91 8.98 26.91L24.91 26.91C24.97 26.91 25.03 26.91 25.1 26.9C25.16 26.9 25.22 26.89 25.28 26.88C25.34 26.86 25.4 26.85 25.46 26.83C25.52 26.81 25.58 26.79 25.64 26.77C25.69 26.74 25.75 26.72 25.81 26.69C25.86 26.66 25.91 26.63 25.97 26.59C26.02 26.56 26.07 26.52 26.12 26.48C26.16 26.44 26.21 26.4 26.25 26.35C26.3 26.31 26.34 26.26 26.38 26.22C26.42 26.17 26.46 26.12 26.49 26.07C26.53 26.01 26.56 25.96 26.59 25.91C26.62 25.85 26.64 25.8 26.67 25.74C26.69 25.68 26.71 25.62 26.73 25.56C26.75 25.5 26.76 25.44 26.77 25.38C26.79 25.32 26.8 25.26 26.8 25.2C26.81 25.13 26.81 25.07 26.81 25.01L26.81 22.16L7.08 22.16ZM18.52 24.43C18.52 24.48 18.52 24.53 18.51 24.57C18.5 24.62 18.48 24.66 18.47 24.71C18.45 24.75 18.43 24.79 18.4 24.83C18.37 24.87 18.35 24.9 18.31 24.94C18.28 24.97 18.24 25 18.2 25.03C18.17 25.05 18.12 25.07 18.08 25.09C18.04 25.11 17.99 25.12 17.95 25.13C17.9 25.14 17.86 25.15 17.81 25.15L10.2 25.15C10.15 25.15 10.11 25.14 10.06 25.13C10.01 25.12 9.97 25.11 9.93 25.09C9.88 25.07 9.84 25.05 9.8 25.03C9.76 25 9.73 24.97 9.69 24.94C9.66 24.9 9.63 24.87 9.61 24.83C9.58 24.79 9.56 24.75 9.54 24.71C9.52 24.66 9.51 24.62 9.5 24.57C9.49 24.53 9.49 24.48 9.49 24.43C9.49 24.39 9.49 24.34 9.5 24.29C9.51 24.25 9.52 24.2 9.54 24.16C9.56 24.12 9.58 24.08 9.61 24.04C9.63 24 9.66 23.96 9.69 23.93C9.73 23.9 9.76 23.87 9.8 23.84C9.84 23.81 9.88 23.79 9.93 23.77C9.97 23.76 10.01 23.74 10.06 23.73C10.11 23.72 10.15 23.72 10.2 23.72L17.81 23.72C17.85 23.72 17.9 23.72 17.95 23.73C17.99 23.74 18.04 23.76 18.08 23.77C18.12 23.79 18.16 23.81 18.2 23.84C18.24 23.87 18.28 23.9 18.31 23.93C18.34 23.96 18.37 24 18.4 24.04C18.43 24.08 18.45 24.12 18.47 24.16C18.48 24.2 18.5 24.25 18.51 24.29C18.52 24.34 18.52 24.39 18.52 24.43ZM24.4 24.43C24.4 24.48 24.4 24.53 24.39 24.57C24.38 24.62 24.37 24.66 24.35 24.7C24.33 24.75 24.31 24.79 24.28 24.83C24.26 24.87 24.23 24.9 24.2 24.94C24.16 24.97 24.13 25 24.09 25.02C24.05 25.05 24.01 25.07 23.96 25.09C23.92 25.11 23.88 25.12 23.83 25.13C23.79 25.14 23.74 25.14 23.69 25.15L20.84 25.15C20.79 25.15 20.75 25.14 20.7 25.13C20.65 25.12 20.61 25.11 20.57 25.09C20.52 25.07 20.48 25.05 20.44 25.02C20.4 25 20.37 24.97 20.33 24.94C20.3 24.9 20.27 24.87 20.25 24.83C20.22 24.79 20.2 24.75 20.18 24.7C20.16 24.66 20.15 24.62 20.14 24.57C20.13 24.53 20.12 24.48 20.12 24.43C20.12 24.39 20.13 24.34 20.14 24.29C20.15 24.25 20.16 24.2 20.18 24.16C20.2 24.12 20.22 24.07 20.25 24.04C20.27 24 20.3 23.96 20.33 23.93C20.37 23.89 20.4 23.86 20.44 23.84C20.48 23.81 20.52 23.79 20.57 23.77C20.61 23.75 20.65 23.74 20.7 23.73C20.75 23.72 20.79 23.72 20.84 23.72L23.69 23.72C23.74 23.72 23.79 23.72 23.83 23.73C23.88 23.74 23.92 23.76 23.96 23.77C24.01 23.79 24.05 23.81 24.09 23.84C24.13 23.87 24.16 23.9 24.2 23.93C24.23 23.96 24.26 24 24.28 24.04C24.31 24.08 24.33 24.12 24.35 24.16C24.37 24.2 24.38 24.25 24.39 24.29C24.4 24.34 24.4 24.39 24.4 24.43Z" fill="#FFFFFF" fill-opacity="1.000000" fill-rule="nonzero"/>
		</g>
	</g>
</svg>
